<mxfile host="app.diagrams.net" modified="2022-10-31T03:08:24.839Z" agent="5.0 (Windows NT 10.0; Win64; x64) AppleWebKit/537.36 (KHTML, like Gecko) Chrome/106.0.0.0 Safari/537.36 Edg/106.0.1370.52" etag="lv-gkQKH_V9cUTEw8tDw" version="20.5.1" type="github">
  <diagram id="_ugefYgWpYzA1zBSYXTC" name="第 1 页">
    <mxGraphModel dx="1049" dy="679" grid="1" gridSize="10" guides="1" tooltips="1" connect="1" arrows="1" fold="1" page="1" pageScale="1" pageWidth="827" pageHeight="1169" math="0" shadow="0">
      <root>
        <mxCell id="0" />
        <mxCell id="1" parent="0" />
        <mxCell id="AJEfotuRQWFF65abkvET-1" value="" style="shape=image;verticalLabelPosition=bottom;labelBackgroundColor=default;verticalAlign=top;aspect=fixed;imageAspect=0;image=data:image/png,iVBORw0KGgoAAAANSUhEUgAAAiYAAAH3CAYAAACPRJRRAAAAAXNSR0IArs4c6QAAAARnQU1BAACxjwv8YQUAAAAJcEhZcwAADsMAAA7DAcdvqGQAAJmySURBVHhe7Z0FuFVV3sYXYCHYPSrW2I2go6MidmAi2N2jjo6jYyPYM9boZ7fYYmFgK2GCHdjdYmAgqMR3f8v73llsz4Ub596zzznv72E9u/e5rHfFf/1X7DaTagjGGGOMMTmgbe3WGGOMMabk2DAxxhhjTG6wYWKMMcaY3GDDxBhjjDG5wYaJMcYYY3KDDRNjjDHG5AYbJsYYY4zJDTZMjDHGGJMbbJgYY4wxJjfYMDHGGGNMbrBhYowxxpjcYMPEGGOMMbnBhokxxhhjcoMNE2OMMcbkBhsmxhhjjMkNNkyMMcYYkxtsmBhjjDEmN9gwaQbDn3shLLnK6jH03m3v8N3o0bVXjDHGGNMUmmSYpBVyodC9x9bh3fc/qL3bFIMff/opXHzlNWGF1bvZCDLGGFOx2GOSYyZOnBg+/PiTcOb/XRjW3XybcM4FF4dffv219qoxxhhTedgwyTHPvvBS2HCrXuGyq68NP/zwY+1ZY4wxpnJptmGy4nLLhqcfuS+8+dxTdeGxe+4Iiy2ycO0dphjMOsssYZpppqk9MsYYYyqTFvWYfP7ll2HrHXerG3ty7kWXhgkTJsRr3//wQ9jrwEPrrt16591h0qRJYdTXX4err78p7LzPAaFr9w3jtb9u2CP0OeXf4bPPv4jPCro49Dz74375JVx6df/4HIF9zvHex596Jmyz8x7x3s232zkec15kB7J+8+134d4HHgobbbNdPMezQ594KnavNJSPP/00HH/y6XX/j/W26FkTB5eFr7/9tvaOqbPs0kuFM0/uG6684L9h7rnmrD37R97/8KOw2/4Hh2VXWyucdva54eefx9ZeMcYYY8qHFjVM5ptnnrDfnrvVtfTvvPe+8MFHH8d9DIPHn34m7m+20QZh0w3XD23atKmp/J+OFeuI51+s6774+ptvws233xn2OPCQ8N4HH8ZzWX76aUzod9oZ4az/uyg+R2C//403hyeHjwj/OOb48Nrrb8R733rn3Xj80quvxeNC3HbX3eFffU4MH9RU+MCzBxz2r3DHPYMmM2jq46nhz0Zj5pY7Btb9Pz759LNw4eVXhgMOPSKOHZkaq66ycrj9uqvC5ptsFGaYYYbas4V5/sWXw9Mjng3jx48Pgx58OBpFxhhjTLnRbMOEyv0v621S520gHH7sCWHsuHHx+tprrB42Wq973Mfjcc/9D0ZvxC133BXP4QXYa9edwowzto/HHTt2CKeecGx46uH7whvPPhlGDn88nHTcUdG4wUh44JHHChoGd9YYDHfd90Dt0f/A+3J035P/MEaD40eHDCv4rtfeeDNceNlVsZJP4fiGAbeHUV9/U3umMBhPfU8/I/5G5xVXCA/ecUt4fcQT4bLzzg4zzzxTePm1keHGW2+v8x4Vg84rrRD+0rVLmH666cLmG28UFpx//torxhhjTPnQ4oNfMTgwPNQNMeihR8K1N90SW/ew7+67hmWWXCLuA0ZMzy16hNlnmzV2m/w0ZkyYZ+65wlxzzBGv4+0YV2v0pMxWc/+1l14QRtYYAKccf0ydlwYjaLUuq4Thjz0Qnhv6cPTMCAwlunqyYIDs2KtnePHxR6NBcf6Zp0eDAl4d+fpUp0I/+OjgOk/LztttGxbqtGBo27ZtWGXlFUPXzivH83iERn//Q9wvBoss1Clcc/H/hZefGhL+dehBdYaeMcYYU060uGECSy3+57B9z63jPhX2RVdcHffX/MtqYYtNN4pdOOKHH38Kl/e/Po7tWGbVNcOq3TcK+/79n3G8Cnz62ecFjYn1uq0VB+K2qzEAuq+9ZlhqicVrr4SwzeabhVlmnjl07NAhbFzrvZkSyy2zdDSm2rdvHw2KNVdfLXRbY/Xaq78bNPWBp+idd9+rPQrhsGP61HmSOq+1Xnhk8NB4/tvvvqsxTL6P+8YYY4z5nWYbJoVm5Zx5Sr/QPhkT0a5du7DJBuuFBeb/U+2Z39lo/e7RYBB4Nw4+4uhwxrnnRwOG+/F27LJ9rykO/ATGYPA70LZtm2igCJ2H2WabrXavfhbptOBkHocZpp++5vfnqj0yxhhjTEvRKh4TxlIwtoTBnyn9b7wlfPTJ/wZpPvv8C3VdPMf889Dw0J0DQv9Lzg+777h9mKljx3i+Nfjks8/C2LH/6y76eezY8MHHvw/ahY4dZqzdmzpnn3riZEabgqdUG2OMMX+kVQyT5158OVx784C4z2BQjfN4+933wq133lU3CPSNt9+JW/jl11/C+PETagyEsXHAaWsucf/KyDfCfQ89HH799bfYbXT7XfeGIY8/Ga/NMftsYcEFF4j7hcC78qf55q09+n3w7Qsvvxr/jwy0/fa70eHGW+9o0KwcY4wxptpotmFSaFYO4baB98TrdM9ccNmVdbNitt1y87D3bjvXdc3ceNsd0XCB+eadJ26Bqb7Lr752WGnNdWsMk9tadXExBr+e+O+z4u+vuMY64eQzzq6bobPGql3jQNP6YLzMut3Wqhssywyc7ffYJ46XWarLGmH19TeJ66tkZ/w0F69jYowxphJoUY8JXoKbagwPdc8w2HX97mvHwbAbr79ePIfBcsmV18QF17qsvFJYOFPpU8EfdtD+Ux1jUkyW+PNiYYPu3WqP/gd/G+uypONnCrH8MkuH/ZP1W1qDdB0TZgVpsLAxxhhTTrSoYfLKyNfD1TfcFPeppHfZoVcc7Mpg1O17blXX5cFCaw89OiR6Is4+pV80YLgfA+GcU08Ka6y2aryvtcDw+NehB4c9dt4hrguCcdR76y3DVRecGxZfbNHau+qH/9+eO+8Ypy8z6FfeE7YYPKf2OXaKXpem0KXzSnXrmGxSY/SxuJ0xxhhTbrSZ1JBlTKsAlqTfZd+/xX1mGl1y7plhtllnjcfGGGOMaR1aZfCrMcYYY0xDsGFijDHGmNxgw8QYY4wxucGGiTHGGGNygwe/GmOMMSY32GNijDHGmNxgw8QYY4wxucGGiTHGGGNygw0TY4wxxuQGGybGGGOMyQ02TIwxxhiTG2yYGGOMMSY32DAxxhhjTG6wYWKMMcaY3GDDxBhjjDG5wYaJMcYYY3KDDRNjjDHG5AYbJsYYY4zJDTZMjDHGGJMbbJgYY4wxJjfYMDHGGGNMbrBhYowxxpjcYMPEGGOMMbnBhokxxhhjcoMNE2OMMcbkBhsmxhhjjMkNNkyMMcYYkxvaTKqhdr9BnHTSSWHihAlhYs1j7dq1i+fqXsG2TZuaf23CpIkT4z3sE0z+GTNmTBg5cmT4+eef63RbcMEFQ6dOnf6otSk7rG9lY30rH/RD17Zt24bjjz++9mzl0WjDpF+/fuGDDz6IgQjS4+xn0fVG/oQpEb/99lv46quvwvjx42vPhDDrrLPGkIKeaGt9ywvrW9lY3+oA3eDRRx+N20qk0YZJ3759w9ChQ8MTTzwRZppppmi5Ads0oXNMmDBhghN+mTBx4sTwyy+/xMD+zDPPHKaddto6HUEaq2DjPlMeWN/KxvpWPmiGZ+ynn36q6Hq1SR4TDJNXXnklbLTRRtE4IdFPM800MaJI6GQEQUSa8mDcuHHRE/b222/HxI++c8wxR9QQjdmirXTOam3yjfWtbKxv5UOX3PDhw8OIESPqjM1KpEkekyFDhoTXX3899O7dO3Tu3Dn2YSrBE7QPZAZTHowaNSrceuut4dlnn4391Ntuu23o2rVrWGihhSYr2EBaW9/ywfpWNta3skFTxhANGjQoDB48OBqWlUqTDBMiBcOkV69eMXTr1i0mclBCzx6b/PP+++9HfYcNGxZbXz179oyF21prrRUzAVoqgLUtL6xvZWN9KxsMzwEDBsSAc6CSDZNG+/Gmn3762G0jMECIoDSY8oSCSi0qdGQQHYF9zhO4h9ZXI+1ZkwOsb2VjfSsfunII0rlSafT/Lk3UJHj2SewE9nXOlCfoCKmu2UxQ6ZmikrG+lY31rWzQVaGSaXQKlQUOqWFCYmdb6RFW6ahgAzTNWufWuryxvpWN9a1sqHOrofHfaMMkTfh06ZDIFVnsc457FEx5kSZ49nUsLTlGa7C+5Yf1rWysb+UiPdENg7OSabRhAtkEzTEhzQim/JHO1rQysb6VjfWtLNBT3i8Zl5VKkwwTIJJSyzvNBMoIzhDliXRLddV+es6UJ9a3srG+lYu0s2GSgUSvoEhKM4L6L3VsygtpCamuKRxb2/LE+lY21reyQdNU40qlSR6TaomcakYaW+fKxPpWNta3MqkWPZvclWOMMcYYU2xsmBhjjDEmN9gwMcYYY0xusGFijDHGmNxgw8QYY4wxucGGiTHGGGNygw0TY4wxxuQGGybGGGOMyQ02TIwxxhiTG2yYGGOMMSY32DAxxhhjTG6wYWKMMcaY3GDDxBhjjDG5wYaJMcYYY3KDDRNjjDHG5AYbJsYYY4zJDTZMjDHGGJMbbJgYY4wxJjfYMDHGGGNMbrBhYowxxpjcYMPEGGOMMbmhag2TSZMm1e6ZSqWQxtlz6XF9acJpxRhjWo+qNEwmTpwYQ7ZSKlQBZe8x+UYasZXOIqt7ek+h+9Nz6fkU3aN3AvsKprhk45X9KWnTEA0aep/JH1PTLb1ujcuHqjRM2rRpEwNMrVDivvoqJj2bBlNapGuqsQyHQvqk6SB9Ruhcel/2XdlrIvsuUzzSuCaetc92/PjxYcKECfEYUk1S0newrc/AMfklzWNpPk+1Vfnt/Fg+VJ1hosTatm3byRIwiVYFnO5Jqa/Q0r31PWdKA1qgsfYLaYPe6T1KAzqG7D3ZoGfS5wimZcjqAzonVEGl53V/Vp/sfnpsygPpluqX7tdXdpv8UrWGSZpw04pH1nWamCng2rVrN1lBlxZ+BN6h95jSgja0mKWPdJFG0jHVPz0PaVoAtr/99lud3gTu0TsE57PvMsUj1UxxzDnts5122mnjdZ1XyKLz8q5Yt/IEndEQ/aQhW+C8yu5sXjX5pepqUhU8JNI0oWYNjfQ+SI9V6Qn202NTeqQXoA3HqU6pXoW0y6YB9ingQOe1TUmfKfReUxyy+smIrC/edY+upfldlVkhPU3+kebZADY2y5OqNUxA+/UlZM5hhIwePTp88MEH4fXXXw+vvvpqeO2118LIkSPD559/Hn755ZdYyJl8gGboJx2lLQGt0BLdPvzww/DOO+9EHaXn22+/HXX+7LPP4n3jxo2r05b3yTAB3q0AvD9LoXOmeRSKb/bJp+j7/fff1+mLnuhKePPNN8N7770Xr6Et9/IM6J2mPEE/8im6ojv5mUB5je7vv/9++O677/7QoDT5peoMEyVMKhoFVTAErpPIScQMosN9P2zYsHDSSSeF3XffPeywww5hp512ittLLrkkVmRy8ZvSk2oJ0hc9v/zyyzB8+PBw1VVXhdNOOy0cdthhYZdddgnbb7993B5yyCGhX79+4eKLLw6PPvpoLOR+/fXXugJNaaOQIarfS6/pnCkeyr+KW7ZoDOg7YsSIcOONN4ZTTz01HHjggTGv7rzzzmH//fcPJ598crjmmmvC0KFDw7fffht1RS/yeSFNTXmA/j///HMYMmRIOOWUU2J+3nHHHeN21113Dccdd1x4+OGHw9ixY61zmVC1hglQqKnCSSsR3YPBgeHx/PPPh6eeeip6S9TCxhqnZU1ip2BL32vyA5XVM888E66++upw0UUXhSuvvDLcdddd4bHHHotGyssvvxz1fOWVV+J9gwcPDvfee2/o379/uOyyy8L1118fnn322TBq1KiYRhSAQi4t6JQGlJ7SNGWKQxqnxDMeEvIixggNhcsvvzzccccdUV+MFHQlPPfcc7HiGjhwYNT2vPPOi/e99dZb0fi0VuUJ+Y80gPcT4+OJJ56o85gQ3njjjfDxxx+HH374IRqipjyoKsOEgkxB6DitSNhybsyYMbFQwyAhcWOA6BqwJWPoHTpvSod0wKikwEK7u+++O3pBMDRuvfXWaGjg1v/666+jpsCWVjRekhdffDE+Q+uaiu6+++6LBimFmwwRfiPVHtL0Y1oO4pe4p5WMjni30IkwYMCA8OSTT4Z33323Ti8qpJ9++ik2MjBGMU4uuOCCcN1110XvyRdffBG77aSjKQ/Qi3z76aefxsYjRslHH300WRnNPl2w8qqZ8qCq1CKRkkCVSCm0FNKEzHUKqk8++SQWcrSq8IykFjf3K/CMgiktaCAjgy44KqpbbrklakhFBan+KdIPTaeZZppomNIav+GGG+J78JrxXhkz3M+96urROdOyENfkTwyNQYMGRW8YrWP0RdtUA83QEdrneTxk/fv3j+9gPArGrHQ0+Yf8i3GK1/ORRx6J3lF5v9K8zDnlWVMeVJVhAqpMCOxTUKWFGYmdQouKDLc+LSy6bPQMAdLEn+6b0oI+P/74Y2xJ33///dGYwMDEyJBhKYNElRTaaV/6cg8VFc/hLaMSe+ihh+JAOt7PfXouTT8iTSumeBCn6IKBSAsZfTEqMEqofLJxLqMRfdJpo+jLgEgGRz7wwAN13XWuwMoHymn0Qzu66vCQKm+nZPOmyT9VZ5gIFVaqWIBEjWcEdyAFHgUWLnwKMO7hGT2nxJ7um9KiCocKhi44PCb0PdNikm5UTjPOOGOYd955wxJLLBGWWWaZsOyyy8bw5z//OZ7nut7Flud5D25/uoZ4PxUe70vTTxaeNcWFOCWP4r6n4YCnhG4a9EAvNJl55pnDAgssEJZccskY0HmxxRYL8803X9RWlRdbKrOnn346jkfB6KSys26lZ2oaYEBSLmOU0I2DdungVp4nKM/Xl0dNPrFaCSRsxhjgtr/ttttigUWLmQROwZdWQsoAHLsgyw8UWLSgaU3j2mVaaKpPhw4dwsorrxz22WefOAASVz5dNYwnOffcc8Mee+wRlltuudC+ffvJDE4qPwxWBlDiTVNLXCg9pM+k+6Y4EKeMDaLB8NJLL0VvpuIe0HfVVVcNBx98cLj00kvj4GW0PeOMM8J2220XFl988XiftJNxQstbrW60hVRf9rlXv8Vxet0UD8VzNn6lAWCUMLCVQc6MJ5I3LIt1Kk+q2jBRK4sWMe5+EjkD4uQpUSGlxJ0mcjKBAjjxlx6MEjSj64UWFP3P6CuDcpZZZomt58022yxssMEGoWvXrmGFFVaI3hKMEY433HDDeB3vSceOHWvf/HtawUjlvVSGaStdhaXgmPRQqKA0TYc4JW6/+uqraHzSnaMxBTDnnHNGPXv06BHWXXfdaIAuv/zyYcUVVwyrrbZaWH/99aPR0qlTpzDddNPFZ3gf6QYvGNqyFgbvBN6bzfMpzvMtA/GsIM0V12zxauHBZPwf5fQ333wzWR7kHt2fapjVz+SXqjNMlGCBAgjLmwKJrhumD9J6xjVIq0woQaeJP804It03rQ+GApUVi2gRVGlhlLCde+65YyVFBUUFNuuss8ZBrlxjO9tss4WVVlopGicYK7PPPvtkmjK2gRkceGLSMQ2END2k6cQUFxmIBPSZZ555om54Sui+6dKlSzRKll566dhtg/bTTz99mGuuuULnzp2jsbLIIouEGWaYIb5P+jJuCF0xbGWYpEhfaaxzpmVAN1D+AuKbvEWZra5auvRogOieFOmTvsOUB1VlmJA4ZX1TqVC54PJnfYszzzwzTgulcFI/c1oIqXITepfel+6b0kClRQWDUYLXRBWM9GH8CC1oKjO6ajgvr4fAS8JYBDwmtMDTNIBhgmeN96cDYFM4rs+tbJoP+XD++ecPa621VlwUr1evXqF79+7R40U3zUILLRQNFowR5UkCzzH2BK8ZWzQSaEV5QAVH3pfBKdJ90LE1Lj5oRfwqTxLHadmLPsyUo5ud8SV0vwvu03gS7uc9CryPvC7tTL6pKsOExEqgAGKq4Z133hnXtWBhHvqYcedqTAKJG3cvLTGmHCpBZ7d6ZxpMaSDuKZionFZfffXYeqbljOseI4NWM14TjBL01TMKnJPuVG60uHUPULiRPjB4KORAzwFpQukC0n1THIhrDEy8H3TH9ezZM67uecABB8TVPtdcc81ofKQVlPRDj/QY0n3pn30m1TW93xSfbPymOmiGHJ4SBj3j3Uq9lgQZNqmGoOP0nMkvVWWYAAUPVjaGCYtoMQWUfkoSPYmahIsxQqt50UUXDX/605/CTDPNFJ8lwQvtK6Gz5d2mdBD/eDxWWWWV2JLeYostwkYbbRS6desW/vKXv8QZOFRqGJqAhqrApCdbAvfQvZPqzH0YLQS1uDmvNCB0rGdNcVBc0wVH3qRbbu2114464z3ZaqutojFK/uU+9CKwT94m35PP09kbgE5qhGCMKn3Uh/Q1xUcaZ0EvutcxSB5//PHY/a68imZzzDFH1E95Vu9RUFow5UFVKkXCJaErsRLk0qc1TQXGt3D4lgqVGq5jjUXQ/exzPxY7gX3ea0oHlcuCCy4YjZBtttkmzrDh+zcnnHBCOOuss8J+++0XjRZ5QgTaEUgDBLpsGASJZw1U0NE9gGGD50XGKs8B11OUVkxxUR4jfjEO2So/Kw9qC9qSR6nYaJBQqam7lsA7GKeCZ40tOgvpyBZ0v45NcSF+s1qqbGbAK7PimI1D/lT+wivKgHW8aORNPcfWlCdVWXKSoGVZEzjGdc+sjN69e0fXMAmdFhkVEQPlSOhZKJwKuYxNaUAHtKJFTZcNXi8GRNK1w5gRvF94VFSgoRf6SzvO01XDAFpcxoxBkr7APgUfQeMUlIZA+rtQbB0U9wTFfaF4Z9YG68/wDSQWTEwXUkNDjEw8MIw/0oBovUdpQ6T7pvgovhXP6IARyZRgtGNsCYNfMVZoiDCQGS8Zs67oruUcz6pM5nnlR73T5J+qNkxoGWGQkLhpSW+++ebxC8J8lRIjBfegWk9kBBVW2vIegiovnTelQ4UaeoiG6ML9PMegVtYrYeVYtcpUwKEzA2cxejBw5EXLGiLsOy20DMQ3KI4V0vPs4+1ikDKta63ae/vtt8e1SjA40Qxt8ZAuvPDCcZYWhglGSkPysn7XFBfpp/yLTujFTEl0pNudxgPXyYPMsqKsXmqppWKjRM/qeWtUnlSlYUJip5Khi4Y1D4499tj4uWxc/yR0Bs9R6QADHdW6UuEn0sKJd2YrKNP6FIp/dJNhyb50TO9ln3tYYI+WGetk6CN/ug8jlZY1XjRaZir8gHvS9+s3THEhXqWVKiAC57XPdcYiXHHFFWHfffcNhx56aOCjfXxThQGTgoqMMmDTTTeNXbasDpt245jWBd3SMpR9xgMxRZ9Vl5mggFGC9uiEB5TZWRiUNDDT7yIp35IuKMuVLkx5UHWGCYmTVhLufYwSvCQkbtatwPXPACqMlrRyUaEH2cStY92vZ0xpUPynOkk/zlHYiVQruYtZtIl+bBklwHMYq1RcrHNCgahn2abvgeyxKR7ST/kRsvGNbnTHMZYEjwlGphbFY/wQRiVeEtY7YSzZxhtvHFvc2dlaAv3T9KR961xciE/FqeKchgJLOuAxwQOmuCcP4imhGwfjEt1UbutZQvadpjyoSsOEwY8MdGO64RprrBGNlLRQUgImQXOOkM0wWXSvyQfSS1tpqBYZ+woYJbTKZJTg7qcrQNd5FqOVMUcEunPSdJCmD5E9Ns0nG+c61jlgH8OEljYaZg1RAi1ouuPovqUMQFPGJ4hUu/TdpuVRXsIrgn54vh599NG6DzVifODp4htINCjZ0mjgfumWag5T0jObfkw+qLqaNK1ElCA5B5xnX8dc5xxbVWg6r31dN/kGjdCKgo199FRgoCsfhOO7KnTjaC0bPYPbmAKQNTKY9YNXTemE68A23Tctg/Ka9EnhWJUSxolm3kgP6YW+eMcwQFmkC/2ZRix4BxWd3p9qC9rP/r75I8RRoXia0nmgCx1jhHEl+mYZ4O2iUYlRyYDXdCkHaa/yGziPlin6DbZ6Lt3XsSkdbuI3kKklVCfk/KACJq1M0kJHFQ2FH1MQ+UbSwIEDY+uMLgDulZ60zpiOyDdWmI6YXTXUtB5ollY60hHSygSjhNa21iYSuoct3Trofc8998SP/PF9LAY8Y7Tod/Q+oXSRPW8axpTiLr2GBqzAjQeTcUHMqsK4wNPFdO6//vWvMS/SnaO8mDYS9J40faS/y36aLnSPyQ82TEzFkRZyFDraT89T+NF9Q//1/fffHz0mmkaqgoruPS1/ztooTDn24MjSklY26b50BSoddKJ7ho82si4RxqWWq2eQJBUds6/QnQ93MmOHlrnGFskAStMMpMf6bVM/9WmUns/CAGW8JQx4Zcu4IJ7FU4m3ZJ111omfIGBWjt6T6gU6T5BmusZWhgnPpUZoauCY0mHDxFQ0FEBy5dK6InCOgZFMIe3fv39smdGC5jwFE/dQODEDh5Vj+Vw+00lV+JnSQOWBlqpUVNmkFRDg5WLs2OGHHx4uv/zy+GFOZuicfPLJcbA740vQkvdghOAlIw3ccsstsWuHrxdDWkmlFVd63jQd6QdpPNPNhsHIgFc8J9KWblQ+NUE3DmO+0EF5letoyVYagfK/zgP7SkPAsYLJBy5pTUWhwkWVByEtkBgUyUwNvo+k7hsWbBLcQ8XGtHGmkW655ZbRU0IXjt5pSoc01X6KtMYjwiJ4fNQPTwkz7phNxRghZuBgbNINgM48Q4scY4R0gWHC6rB41Ki8sr9hiktqDKADXky6bxhbgveK7laMD7xfNA7oxtGil4A+CsD7FIDzab7VMe9M0TvSv8eUDhsmpmLIFkjsq8ABxh0w0JGZN4MGDYqtMvqvqYBUWGGAsOAelZemkrMaKNdNaUHHbCVDSHXnOoGuHGbf6X6O6ZbDk4LBiTdMi6lxnQqQrjwqRQyTdEaPfsM0nlQb4hEKxSVxzZggvhyMp4QGA40IwAihccDUYLwl6sLJvjv1nkg7pQf9NrCvc3o+vUfbQn+naR1c2pqKRIVTWrngImZZcsYUjBgxom7WBvewVRfA/vvvH3beeec4jZTWt1pXus+UDlUm0lZ6ZLXhPlVKwHXOsZozlRyzrBhvgptf+pIeGHdCq73QVGOR/S1TP1lNoFDcEfesU8LU4BdeeCF2r9E1AxiQ3bt3j+uW6COcaCAdtM+MHS18yG9xDn3V/afAscatQKG/EQr9naZ1sGFiKgYKFYX0mEKPb6UwpgTD5K233ooD7NT3TMuagZHquqEQZAGu7OA67ZvSocoiq4X04bpCel3XqNSY2YH3BE9Yeg9ek08//TSOa8jO6DFNI43fQnCdeMYQZBE8daVpvAjX8Zxwnun8p512WjjxxBPrQr9+/cKpp54aLrnkkjj9Gw+o4Fnew3vJ9//5z3/iOKP//ve/4dZbb42zsNCZ+5RmUqb2t5uWw4aJqSjSwoTKirECFEyPPPJInH3z1FNP1RklXMdLwkh/BtUxyJUuHFrTzMhJCyz2ud+UDnSgpUslhoZUQrSyWR0UTwcGBd86UksbpB2BChAN6dbBOMEglcZAmmBcA2OOqAyzhgn3plszdRT3hdB5GSbEPdP30TWNawamk38vvvjiaIgQMEpOOumkuMVYwTDBC0p3nPTkWdICxiZdt6lhMmDAgGiYoDP36Zn0WYIpDS5pTUVBIadAIUOlRaHGjIuXXnopFlRUQEAFhWeEsSR037BWCYMmswWS3mdKC7phkPAhN7xfDF6+7LLLYsXUt2/fcNVVV9V10cmIZCs9tSVdkA4IqbZ6ppDeaZpI32MaxpTiivhEWzxW3Mex4lha0N2WjiEB3ZPCNb0DeJZ3S0+uYdwqjUhzoef0HlMabJiYioKChUClg6eEtSlYPIuWGF8LppCiwGF8AaP8t91227DhhhvGtS4wSjTaPy2Y9E5TWjRrg/Utrr322nDTTTfFBdJYII8BzQyaTGfUSEPpSCWE/rSSMXConEDaUvEx+wNvCukgW2kB71Il5zTRMFINIBtvWQMhvV/3EufZeOeedJ93cKznFYT2uUe/p3vS95jSY8OkCDgx5wcVTLj0X3nllTBs2LC4iBpGCcYK1/CUMCuDhZowTPCUMN6A84UqIxV4prTIY8J4oQcffDB6whhXwKBmPGMYJXTp4PqXNyQFDTFG6CrAaCWNcE7asrIo04j5FhLji9LKK7vVvmk4xFka32kcEtcahJzGr+5PDZOU9H3Kp4Ts86Bz3Kevx6f3sc9v6JwpHVVnmKSJLk2waYIsdA9k90nghNRVaFqGqRUWXNc99FdTSeHqx2MiowQYtb/AAguEtddeOw50pStHYw1SOFZISf+OQoXY1P5O03SoTPBqoR8GBFqC8h7GBtN9mRKOcYJ20kP7zPbg8/l4Vxh7wLPSkfexcBczP/gwnCrK7HtUAVrrqZPGW0oadyo/s/dAqg+wTQPXQOWw9tN36V7tC+0X+l2o77xpedr1pXO2EbD2A4U+g4xYuIhA4Z6KmGdBp5YItSXB8zXLF198se6z6cB1JXwWbWJuPe5fCrX63l0uUIHjEkdf3OapvqUkLVhA8VxfwUIL+vHHH4+DXfm/YKhwb6odxwy2Y7T/48OGhSE16XpqgbRP/NBqTz0senf699T3t5WSvOrbGDBOGOSq2TN02xDHBComjVPgPowLTR/FU4I3hXSBt4XxRuioig24v1u3bnFaKmvZaExDin5LZK+Xkjzrm40z5ZkUtMIo/Mtqq0VvZl2o0WSy40z4y+qrh6WWWiq+k/RAV53er3fSENlmm23CuuuuGzXmExPLL798zMekFf1NoL8r+/eVGsoxxlcR0LiRVXd5USNGozjhhBMm1Qg7qablMulvf/vbpMcee2xSTeaO19hqv5zI/t3s1xRwk957771Jffr0mbTKKquQYifVJNRJNYXcpJoCK4Y999xz0ogRIybVtM7K9v+e8v7770/afffdJ9UUZJPpW2qI15pKJwbFcXpOcK6mApo0cODASTvuuGP8P6AXuqXaab+mQIr7aNuYgO41Le5JY8aMib8/fvz4yf4ubdO/LQ/kVd+GQpwS1zUG4qRDDz10UqdOnSbVVDx1ehLat28/afHFF4//t9tvv33S8OHDJ9UYIZOefPLJSZdddtmk7bffftL8888/acYZZ6xLC2jKczUV1aRLLrlk0htvvFGnaaqn9vNKHvWtLw6Vd5VH2NYYU02K45oGZCyH995776h9mlc7duw4aY011oi61hhu8TfQlvKd32Rfv0vQ35P+rXnhq6++mnTBBRdMqjHG4v+tkvEYkxpqCqeC1nFN/ExmPav1VZNgY+CcrG3dY4oP8Uq8EwrFMToBrUQtLc74EtYoAFq+PAvoxv2EmkIonuOdDQ3peyD7d2lrWg68GazIizeABdOI8zQN0JXDOhVHHnlk2G233cIOO+wQaozJuN4FnyKgO4eWNc9IO8YcsX5N+h2W+lD6MVOHuJU+ynuCY/Ig57iHfMq2sfAc69MIvQMNKZ/l2VR+Z59n0jysZ5ry+6b42DCphzQDKbEqEwn202PTMiie07hGEwWBGx8XJ105dL3JrZ8aI3pHetzQoOdEei0tdLV1IVdcpDfGCEbJBhtsEN3xfEaAiolr5FGMDrqamYnFEue4vhlXQtqQUaK8zHMydFjDhjVtNOZIwRSHNC7ZxyAgNAc01LuUB/U77BPScjvNpzJICDqnZ3XelAYbJo1ACVwJln1Z3WniNsWDOFXQsVDhobinb5lFk2gxM34AvQCN0gJJ+jWW9O9Qgapz6TXTchDvGA58aZbxAnyYb4kllohTfDEy0ED6aj/VW2lB79H3c9Zbb7245T20sqdE9p2mfpQvFGeKN7ZokHpJmpJ/9AzvUB5Pf4cyYHztbDx+j63SgP4G4LzeZUpP1RomSohpENon4bLPNu0OSFEGgHTfFA8VIIpfFSzSiS0ufGZifPLJJ7FVTIHE/XpW6FjndE9DA/As6UHofbrOlr9PBaIpHsQrsM4IXw/eaqutwt577x3XoeGbKsQ92ii/prromIB7H28L08Xp5sEoYYow6DeEygDtC2s7ddI4Ig4Vj1k4jy5NIdVGZUOaBvQ3sC+jc2ra6V2mNFSlYVJfotR5ZSAFJVK2CkL7uscUF2lQH4p3jAA8JlqWXNcKwflUt8YEPSOts39feq2pBa0pTBr/xC2fDWDGCTMuMC722Wef0Lt37zirhm8f0cXDfVRQHTp0iN6RlVdeOWyyySZhr732Crvvvntc9Xe55ZaLM+tUkUlPfke/KXSOMKV0aX4nG0dp/BHIKwT2mwLv1ztSQ6TQe7XPPQTQOf2dPCOsb+lwyVkPJFwGu7LYEgPjll566RhomREozCjoaHmRgEngCqa4ZOO0vsIOzaiAWOeCMQjoJN00dVLn2OpcYwODIzUQOv1b9HdQuHGegtKFW/EoFNfojedk++23D/vtt1/0nvTo0SMaK0zlRy/yaufOnWO3Dx9q3GmnncLf/va3+AzfSMIo0eBJfkO/o98wTUfxWSguda7QtcaCfnTv8Z0rNFe+55gxREwLljHC35PNu1nN02um9WlTI0KjUgRzp1nPgQFlvXr1ioF54Up8kHdRC/2d2XNULnQPMFaBLgJa46pwFEjs6pNWJaTnyxEGB/KBLPRlRov0Za2AUlGoBZONY7Sj64ZBjazqiVZ4UFK4p1jaoDtL2tdnnCidqCDMC3nUtykQv8qv2hLXaM56JXjMSAsck4elBXmULiCMGcaXUJlxDkg/BM5JzzS/C35PaSk9nwfyqq/iDArFJzQlLnlWaQGt6cLl/61B7yDNWaOGkM2vKenfovdO6f7WhgHdfHyQgMb6eyuRqvSYkNCmlti4TiE199xzR4tbrW55TAi0nPGYqHCr5IRSKrI6FdKNc2iAax9vCYMhU62y+80NeMr09WGRVpZ5KswqEeJWgbhWfGMo0n1DviTPpumAlvNiiy0WtaMxIaMSzTBIVAmxVUg1lL7pOdNwpBcQj2l8EhTnjUHPEtAT3fGepXmVcpvuPjSnjKjvt/h7gOvaKpjWx1059ZAmSiVknVOiTs+nx6Z4ELeqeBTPKYpv3ad7QdekS1ab7HFDSJ9Jfyd9v/7WprzfTBniNNVaIUXxn5I+A6khyT7XtSZRIR0VdB50bKaM4lEB0vhsTjyiJ++UYSHS3ypE+pv6W9JzPJtNV6b1cMzXUigh61gFmu5Rgk3Pp/um+NQXr1OKb+mR6pPSFK3SZ/Tu9P3Z66a41BenjYl3rtN6ll4YJEobHBfSUfrqWME0nmLHJ8/JG1KI7LvZ12+DjtNzprRYiQYypUQv6rvHlJ6W1sbalxfZfDs1/axvcSlmfDZEv6lhffOFDRNjjDHG5AYbJsYYY4zJDTZMjDHGGJMbbJgYY4wxJjfYMDHGGGNMbrBhYowxxpjcYMPEGGOMMbnBhokxxhhjcoMNE2OMMcbkBhsmxhhjjMkNNkyMMcYYkxtsmBhjjDEmN9gwMcYYY0xusGFijDHGmNxgw8QYY4wxucGGiTHGGGNygw0TY4wxxuQGGybGGGOMyQ02TIwxxhiTG2yYGGOMMSY32DAxxhhjTG6wYWKMMcaY3GDDxBhjjDG5wYaJMcYYY3KDDRNjjDHG5AYbJsYYY4zJDTZMjDHGGJMbbJgYY4wxJjfYMDHGGGNMbrBhYowxxpjcYMPEGGOMMbnBhokxxhhjcoMNE2OMMcbkhjaTaqjdbxBHHHFEePLJJ8Nbb70Vtthii7DxxhuHLl26hDZt2tTeYcqVTz75JJx77rnh6aefDmPHjg2bbrpp2GyzzcJqq61We4cpZ6xvZYO+//3vf8MzzzwTfv7557DJJpvE8jmrL0W+y+vy49tvvw0PPvhgGDRoUMzDjay6y4pGGyY9evSIRskXX3wROnfuHOaZZ54w44wzxkhq27ZtTPATJkyIWyf+8uKnn34KL7zwQtR2/PjxYeGFFw6LLLJImG+++cLEiRPjPWiKzhy7gCsvrG9l8+OPP4bnn3++Tl/KZsLss89ee8fvoK10RuNGVgGmRFCvojEGKBorz1YijTZMunfvHj788MPw2WefhTnnnDNMN9108bwKMUIlR1glQ2E2evTo8Msvv8Tj9u3bhw4dOoQZZphhssLLBVp5Yn0rG/SlVY2+lMGUzdNOO22YZppp4nWVzyBtrXF5gX7jxo2LHs9K1q5JhslHH30UrbaZZpqpLtGnryHy0uNKjsBKAp1I9L/99ls8ptJq165dXYHG9azOYH3LA+tb2WCMjBkzJuqLdjPPPHMsn6WtdJZHTA1I61seKD+iMaGSdWu0YbLuuuuGDz74IPzwww+x/3K22WaLCVyRptfpGJzwywOscLrp0JdW1/rrrx/1pSCjgMOVqG46yGpu8o31rWxw8zO+5PPPP4/ekg022CDMMcccUV9AWxkjnCOgrfUtD8iPaDZ8+PAwYsSIqGel0mjDZM8994z91HTl9O7dOw58XWihheK19FVEogu28mLUqFHh5ptvDs8991ysxHr27Bm6du0axyKgZVZH61teWN/K5tNPPw0XXnhhGDlyZJh++unD1ltvHQe+LrroolFDjBJpibbS15QHDGhG23vvvTcMGTKkzsisRBptmPTr1y8MHjw4RlCvXr3CtttuG7p16zZZ4aUE74RfXtCSRl8SPZmAiguN0VdeMbWyrG35YX0rm7fffjscdNBBsTXN2BIMExqPdL9LU0Khstrkn6+++irccsst4dZbbw1Dhw6taMOk0euYkKiVsEnURI76NOUeVGKv5IirRNAt7ZNWJYXLUNpyjK7WtvywvtUFWktTIb3RV+nAoTwCKJ+iXSXTJMOESFHkaD9FEVnpkVdpoBkFVqFMkF6T7qa8sL6VT1oWS9s0pOeVDkz5UenaNdowySZ2jjWyH1TAgc6Z8oHWlConkMagzOCCrXyxvpUNuklb6adz0j3VV9ccyiegW6XnzUYbJkQMUMAxb16JO0URV+mRV6lQcBGYuaGppWisCgwwPtPWtykfrG/lIs0IMkLT82xN+UI+zda3lUijDRMl9DSCdE4JX9eqIQIrEelIRZVqTNCxNS5frG/lg24yNLPGCA1KldOmvFA+rXSKbpgQyBBp68uUFxRa0pFuOkh119YFW3lifSuXVEeVwZzTMVsZKta3vEBH5d1Kp0nWQzaClMDZpuNNTPmBdln9OKZQU0EnrHP5YX0rH8plldEggwTYMpU4q7XJP2inUOk02TBRMJVJVuNqyAzVhPWtTKTnlLStlsrNlC82m40xxhiTG2yYGGOMMSY32DAxxhhjTG6wYWKMMcaY3GDDxBhjjDG5wYaJMcYYY3KDDRNjjDHG5AYbJsYYY4zJDTZMjDHGGJMbbJgYY4wxJjfYMDHGGGNMbrBhYowxxpjcYMPEGGOMMbnBhokxxhhjcoMNE2OMMcbkBhsmxhhjjMkNNkyMMcYYkxtsmBhjjDEmN9gwMcYYY0xusGFijDHGmNxgw8QYY4wxucGGialIJk2aVLtnKpVCGmfPpcf1pQmnFWPyRVUaJhREKozYTpw4Me5Dcwup7LvT92WPTcuAnoSGxH32HpNvpBFb6Syyuqf3FLo/PZeeT9E9eiewr2CKSzZe2Z+SNg3RoKH3mfxQdYZJWsikiTV7XqEYFHpXMd9vJqdNmzYxwNTimfvQvlDhp2fTYEqLdE01Vt4tpE+aDtJnhM6l92Xflb0msu8yxSONa+JZ+2zHjx8fJkyYEI8h1SQlfQfbQnnc5JOqMkzShAraV8InNLewSQsx9tPjYrzfTBniGNq2bVsX54p3go6z1Fdo6d76njOlAS3QWPuFtEHv9B6lAR1D9p5s0DPpcwTTMmT1AZ0TMkTT87o/q092Pz02+aWqDBMSsgohEjdWN1udZ0vCZavQFHgH7y6UCfg9VYJNfb+pH8U5W+2nFY/iXxoAOrRr124yPbjO/UoHvEPvMaUFbZS/pA1II+mY6p+ehzQtANvffvutTm8C9+gdgvPZd5nikWqmOOac9tlOO+208brOK2TReXlXrFv5UHUlrRIrQQk1W/jIYOF8UwIoA6THaTAtQxrvinuQnlkNCumVNSrZT49N6ZFegDYcpzqlehXSLpsG2Mc4BZ3XNiV9ptB7TXHI6icjsr541z26luZ3lfOF9DT5pOoMEyVcEisF0a+//hq+/vrr8NZbb4WRI0fG8Nprr4VXX301bhsTeAfv+uWXX+oseqGMoczhTNIypPGqfXRIdU/PY4SMHj06fPDBB+H111+v05108Pnnn0ctKeRMPkAz9EsbFQpohZbo9uGHH4Z33nmnLj+zffvtt6POn332Wbxv3LhxddqqPBC8WwF4f5ZC50zzKBTf7JNP0ff777+v0xc9VWa/+eab4b333ovX0JZ75SnRO0350KZG9Eblrr59+4bBgwfHxNCrV68YunXrFsXXq/KeEPg7CRRGJOihQ4eGG2+8MXz11Vfxb6eAosBqbIU0zzzzhJ122imsscYaYbHFFgvTTDPNZHGR9/ih0O7Xr1/Ud8yYMXX6rrPOOrV35J80jtlXXKNluq80wEC6hx56KAwcODAaJfy/9ew222wTdtxxx7DwwguHGWaYIT5bzlSCvoVATyqhTz/9NLzxxhvh+eefjxUXBgiBSmq66aYL8847b8yjCy64YFhxxRXDMsssExZaaKF4TUaJ0gllQxalGa6xBaWpPEBFfeCBB4YRI0bE7o5yzr+guOUc+RR9+T++9NJLsdwmPdMQ5L6ZZ5455tMlllgiLLvssqFLly5hzjnnjPFA2sganuXIqFGjwoABA2IgD6dxVWlUpceEoESPdf3+++/H1rKs76Z4SwhZjwnwW401cEzTSTMrGmf1Bt3DmAIKNyqyp556KuqO/mhJeqBSGzt2bCwU0/ea/PDll1+GZ555Jlx99dXhoosuCldeeWW46667wmOPPRaGDx8eXn755ajnK6+8Eu+jQL/33ntD//79w2WXXRauv/768Oyzz8ZCnzSiAOTbNO8qDSg9pWnKFIc0TolnPCTkRRqOl1xySbj88svDHXfcEfXFAENXwnPPPReGDBkSGxhoe95558X7KJPxilur8qIqDZO04Pnpp5/CN998U+f24zr7zTEmeD/WOVvep6DfTc+Z4lEoXnVM3Cv+pQteAwo1DJKPP/44GiC6BmxJB3qHzpvSIR0wKqm00O7uu+8OF198cTQ0br311mho4NankYCmwPbbb7+NnpQXX3wxPnPNNdfEiu6+++6LBukPP/xQl+/5jVR7SNOPaTmIX+L+559/jjo++uijUScC3oInn3wyvPvuu3V6UV5TjtPIwBjFOLngggvCddddF73hX3zxRey2k44m/1SdYSJPBomZ1jCFF104qWFCxlBoDDwro0aFGu/gN9lyrACNfb+ZMopraSwdpAXoHgqqTz75JBZytKpIC0oDkGrFMwqmtKCBjIxhw4bFiuqWW26JGlJRQap/ivRDU7pZMUxpjd9www3xPXjNeK+MGe7nXtIFW50zLQtxTf7E0Bg0aFD0huH1Ql+VpUIzdIT2eR4PGd4T3kEXEMasdDT55n+KVgmqpAh0ufz444+x5aXCCJqTeLMZRzhDtA6qTAjso0eqCfpTaFGR4danhUWXjZ6RTtyvZ9J9U1rQhzxLS/r++++PxgQGJkaGDEsZJKqk0E770pd7qKh4Dm8ZlRhjjejW5f3cp+fS9CPStGKKB3GKLhiITzzxRNQXowKjhDI6G+cyGtEn9VKj73fffRfHojzwwAN13XVpOW/yS1UZJkqwggqKgomCKG0VQTYD1EdaYKkg0zlt03dxLn3GtAzEufRQpYT2eEY++uijWOBRYOHCpwDjHp7Rc9LIeuUHtEFDKhi64PCYMPOGMQTSjcppxhlnjANdGQjJAFcGQxL+/Oc/x/Nc17vY8jzvwe1P1xDvpzzgfWn6ycKzprgQp+RRBrrScMBTQjcNeqAXmjDQdYEFFghLLrlkDOjMZIP55psvaqsyni2NzqeffjqOR8HopMy3bvmnqgwTFTRAQicDMPiVwHGKCqS0UsqeS491TgZO+pzgvDINOIO0LujNGAPc9rfddlsssDBM0QHdpCdIJ46tU36gxUsLmtY0A1/xeqb6dOjQIay88sphn332iQMgceXTVcN4knPPPTfsscceYbnllgvt27efLI9S+WGwMoASb5rysVB6SJ8plMdN8yBO6V6nwcDsG7yZaZmJvquuumo4+OCDw6WXXhoHL6PtGWecEbbbbruw+OKLx/uknYwTPCcMkGVfZX2qL/vcq9/iOL1uWpeqMkxAhQkFHImUTJAOkqPPkimF6667bkz8xx57bOh7wglxmnSfPn1Cn+OPj9sTas6xf9xxx8VwfM3+P/7xj/DXv/41Pg8kciVu/W5amDnhtywUQGhAixh3PyP5GRAnT4kKKRVCCoBOCmCtSo/yLF0vtH4ZHIm+MihnmWWW2HrebLPNwgYbbBC6du0aVlhhhegtwRjheMMNN4zX8Z507Nix9s2/pxWMVN5LZZi20lVZCeXrNC+b5kOcEreM+cP4pDsnnVHD9F/07NGjRyyfMUCXX375OPV7tdVWC+uvv340Wjp16hSngAPvI93gBUNbGqG8E3hvNs+nOM+XjqozTASJFRc+RokqKBImCfpPf/pTLNgOOeSQaHScUGOUYIhgfBxfa5RgqLAvowRj5bDDDgtrrrlmnWGSTfBsFUzLkBYmFEBoTIFE1w3TB2k9Mz0Y3YX0SCsg6ZS+zwVVaSGPUlmxiBZBlRZGCdu55547VlJUUFRgs846a91aQmxnm222sNJKK0XjBGNl9tlnn0xTxjYwgwNPTDqmgZCmh6yhYoqHDEQC+lCWohueErpvWJ8Eo2TppZeO3TZoP/3004e55pordO7cORoriyyySN26Q9KX7np0payXYZIifaWxzpnSUFWGCQmOhK+tCiBQq4s+alpSFGr0ZaYJVSjBsuV+Cj2e1TkKLt6vd+odCrpPz5jiQNwS92ypVNAWlz/rW5x55plxWiiaq59ZuoB0EnqX3pfum9JAnqKCwSjBa6IKRvowfoQWNJUZXTWc5xmuCfI2YxHwmNACT9MAhgmeNd6fDoBN4ViDLE3xIR/OP//8Ya211gq77LJLXCCue/fu0eNFNw0L4mGwYIwoTxJ4jvIarxlbNBJoRXmAh428L4NTpPugY2tcOqquZiQBk/DUmiaxAueUwDFKCFjkaQIX3JsmXiXg7HkodG96zhQPxS+aMtXwzjvvjOtaPPzww7GPGXeuxiSgM94xWmJ030mP7FbvTIMpDcQ9+ZHKafXVV4+tZ1rOuO4xMmg14zXBKEFfPaPAOelO5Ub+1j1A/id9UDZg0ICeA9KE0gWk+6Y4ENcYmHg/8Fr37Nkz7LrrruGAAw6IqzDjkcb4IB1wr7QF9EiPId2X/tlnUl3T+03pqCrDhERHwiQRUgDR34gFzXkKJc7j/aDQIvFjlat1xDW22hfZfd2nDKDzehb0W6b4EO8McsUwYREtpoAyngTXMPGOBhgjtJoXXXTR2G0300wzxWezWoI0Y8u7Tekg/vF4rLLKKrElvcUWW4SNNtoofhLjL3/5S5yBQ6WGoQloqApMerIlcA95PdWZ+zBaCGqQcF5pQOhYz5rioLimUUjepFtu7bXXjjrjPdlqq62iMUr+5T70IrBP3ibfk8/ZcizQSY0QjFGlj/qQvqZ0VF1JS4Il0Cqiv5rWtRI3gcKK1pemnZGotQVlCLa6RgBllPS6nkspdM4UD+mS6iGXPq1pKrAddtghjgmiUsN1jO7SVvpxP25fAvvWrbRQufCdG4wQvmPEDBvGgTHm66yzzgr77bdfNFrkCRFoRyANEOiyoVGSekvRm4YIhg2eFxmrPAdcT1FaMcVFeYz4TRuF0lD7uk9b8ijjxmiQpNOCCbyDcSp41tiis5CObEH369iUhqrLWSQ4jBIGQeHaZ/S9EjdwnQxBHzatbaainX322eGkk04Kp59+erjwwgvjSpOsGMo9FHLAO1Tw6X3apomekGYEU3yIX7WGFd94wZiV0bt37+gaZmYGLTIqIgbKqQJKUVqQXtastKADWtGipssGrxcDIunaYcwI3i88KtwH6IX+0o7zeEppkJB3GYMkfYF9jBKCxikoDYH0TytG03Io7gmK+0LxzidFWH+GbyCxYCLlOoYKoCFGJh4Yxh+RdrKeMr0b0n1TOqrSMFE3jgyTtFIiQXOelSBvuummOHCSOfIYJqeccko455xzwhVXXBFuv/32um82UNBhoavASjNPNuGDKjrTMhC/FD60jDBIGKVPS3rzzTcPu+++e9h+++2jkTLHHHPUtZ4KGZS8h6DKK9XVlAblJ/QQDdGF+3mOQa2sV8LKsZQBOs870JmBsxg9GDjyomUNEfadFloG4hsUxwrpefbxdjFIma9Ja9VeymTWKsHgRDO0xUPKV4eZpYVhgpHSkLys3zWloeoMExIsXg76IpmhgWGiQo4ET8HF2ISbb745WuCsPEgBBhgfjNrHKmdhHwyW0047LWYKViqkYFMlBryPxM1vEkDXnPBbDuIaHeiiYc0D1qLBqMT1z3RCxg9R6QDeM7WuVPiJVCNpaM1KS6H4RzcZluxLx/Re9rmHBfbIv6yTofWLdB9GKi1rvGh0GymvAvek79dvmOJCvEor4l+B89rnOuUyDcR99903HHroofGjfXxJGk+4wLtGGbDpppvGLltWh027cUx+qTrDBDBKcP9hhFAxqWBiq7EnLPLDPVjmKrzIHBg1WORcZ4VIpqPStfPggw/GD4Jxf1qBqRAjAOddwbUcxCutJNz7GCV4SZh6yLoVuP4ZAIfRkmrClgIPsrrUp6MpDYr/VCfpxznylki1olGBdxMvJ6u7posq8hzGKhUX65zQJaRn2abvgeyxKR7ST/kRsvGNbpTRjCXBY4KRqUXxKJ8xKvGSsN4JY8k23njjsNRSS/1htpZA/zQ9ad86l46qM0xIbCRgDAtGb5PIlRmUQLmHoH2dTysv9nketzBGCd6Vxx9/PHph6CoCvScNPKvf49gUF+KXwY8MdGO64RprrBGNlLRQ4h4g/jlHkBZc0/UU3WvygfTSVhrK6GdfAaOEhdNklODupwGh6zyL0cqYIwLdOWk6SNOHyB6b5pONcx3rHLBPmU3Zq0agkJ54Q+mOo/uWMgBNmdAgUu3Sd5v8UHUlLQkRTwmGiVpMKVwnsSvBpwk/NWIExxR8L774Yhg4cGD8vgOelvoKLhdoLUtaiajQ4Rxwnn0dc51z0lz3s9W+rpt8g0ZohTeMffRUYKArH4Sj+5VuHBoO0phncO/zMTjWyGDWD141pROuA9t037QMymvSJ4Vj9ATKYspdaQjSC33xjmGA8lVh9MdLLnhHOqYs1Ra0n/1903pUlWFCQiOQSBk3QgJNEySFGqO2mY648847h6OOOiouNc+S80cffXTYf//943LXFF7pyG7eg2uRRbz0me60S4dARtDvpRWjyQdT08Ja5Qe0yOZdndN5At2yfDWYbyTRaGBcAvmUe6Un4xBYpI1vrLCoV3bVUNN6pGUjSEdQWQoYJZSvlOOcF7qHLV5x9L7nnnvizEq+j8WAZ4wW/Y7eJ5QusudN61NVhgnIUsawYFYGszYYqY2rH/cfSx+zoA9GCMZI/HBfTTjmmGPiR/qYbsqMDp6jL1OZhwTPbB5aZBgoeGX4Lcgmdln2zgDGNJ40P6X5KD1PfqT7hjFg999/f/SYaBopzwB5Xsuf0xhhyrEHR5YWlafZfekKGB7oRPcMH21kXSKMSy1XzwJqlL10s6M7H+5kxg5fE9fYorRxmL47PdZvm9an6jwmJEoKI0ZpMzhyvfXWiy0lRuMzepsFm7bddts4WJLErwRMYuc5+iyZcspXhBm9T+JVQpYLUWskkDm4zjs04FIoA+hZY0zjoZJSA4A8RuAcAyOZLde/f/84tkTLAqR5kTzPyrF8Lp/ppMrrpjRQFqIlOumYgFZpOYuXi7Fjhx9+eLj88svjhzmZoXPyySfHwe40MNGS91De4yUjDTBJga4duvGBe1Qm692cS8+b0lBVOZHEhoHBqHu8HltuuWVc6pgpZ3//+9+jNwSXLos24UXR0sUkVDwsZAiMEaxzCjL2lXGATMD3dxgAS+LHUFEm4x5CNrPpWWPM1EkrEOUf9oFrDIpkpgbfR1L3DXlScA/5mGnjNEQoA/CU0IXjCqn0pGViVgtpTbnMInh81I+ymEYks6kYI8QMHIxNynh05hlm6lAeky4wTFgdVmVz9jdMPqhKw4QuHBI1CZkVQJlSts8++8TxIyRoeUrSgootgWu4Cxksh2WeooKRwa9khHQqMqT7vEsFqjFm6pB/lIfIP+wrXwLjDvBWMvNm0KBB0Y1PXkw9JRggLLhH5aWp5Iwrc14sPSoTpae0TXXnOoFymNl3up9jPNp4UjA48YZpMTWuUxbTlcdaJxgm6Ywe/YbJD1WXG7MJUO4+Wc9yBXMf23Rfz6pbBwOF+1O4B7cx7kMgY4Ce5TcIxpimk+ZPIE/Rjcq0fcYUjBgxom7WhvKuugAYP8bgdqaRkpeVh9M8bkqDjARpKz2y2nCfjBTgOudodOIBo+FI+UzXkPQlPTDuhLFHhaYai+xvmdanKg0TgjIAsK+EqWuQJtb0HrZY6CT49B0CQwdXIaTnU/ScMaZhKA8qT2mfCodvpTCmBMOEhQ9ZAZRKiXxGy5qBkeq66d69e1yAi2Xn9Q61rAmmdBQqk0H6cF0hva5rGJp8qI+GI56w9B68JqzQTVd7dkaPyRdVZZiQcOlvxKOBi5cEyvcWWGaewXLsM5uGBKuMAGw5zmYI9jXwDnQtva4A6fl0a4xpGMpDQJ6kAcCqn4888kicfcN0fRklXMdLwmJ7q6++ehzkShcOrWlm5PAu5U/2ud+UDnSgfMabgYaU0ZTJfEYATwflNeUzDT8h7Qgqt2k0YpxgkEpjIE0wK4cxR3S5Zw0T7k23pnRUVU7UCG0WQ+N7OLfeemu49NJLw6mnnhq/p8LIbq0KKZRIlWlIzJxjMKwKMq4p8QPTiPXpdTJDfZa5M4AxjYO8pECeo9LCKGHGBYsbksfVWKCCwjPCWBK6bxjYzqDJbL7T+0xpQTcMkpEjR0bvF4OXL7vssvg9sr59+4arrrqqrotOZS9b6ZmW1aQDQqqtnimkd5om0veY0lCVhgnz2W+88cZomLAADwswsZz8888/H/up1TedJkz2lQlwCdJKIxNxrKD7MEqw2HEr6nxKeq8xpuEor5GXyYPkZRbPYiE1Fk2kciNfMb6AmXNM/d9www3jWhcYJXhQgHuU//ROU1po+DH+Y+jQoeHaa6+NX3dX+cyAZsrndEaNNJSOlM/ojzeEsplyHKQtXe+sfULZTDqQoZLCu2S0OE2UjqoyTEh0JFoKMRI/4YUXXojGCH2PJHqukag1o0aJky0Jm0TLGiUsosbMG87rHhK63IjM2NEXStN7QJmJYPKPdcoP5CP0wKX/yiuvhGHDhsVF1DBKMFa4Rh5kVsY666wTDRM8JYw34Hyhykh51JQWeUwYL8T3x/CE4cGmfMYzRvlMlw5d8fKGpKAhxghdQBitpJG07MXLzaxLvoXE+CKlBeXvdKt9UxqqyjDBsGDUNkvK0+8sw0EJlLEmZATmu5O4IU2g7JNxyCBMOyPxkzmUQSj4GGRHoUgGwGOShXfo/kKFpGkeqV4qkBTnulboHsjuK21QYGYLQVNcUk0KwXXdQ1creRBXPx4TGSVAnmYdorXXXjsOdKUrR2MNUjhWSEn/jjTNiKn9nabpYDjg1UI/yk+0BOU9ylvKXaaEY5ygnfTQPh5xGo14V2hs8qx05H18rJH1p/iatGbrZN9Dnk/PmdanqmpGEj7eDNYxYCljBsCR+BSwsPGY3HXXXdF1SOGHBU7Cxs2IsYLhct9990VPC/PiScDA87wP9zHv5nfShC/YT49Ncakvbus7r0IP0JD70oIJo0THpmVQ/lMQ2WPgmIrpmWeeqat8Uu8mWzyajCNj3MmZZ54ZTj7ppNCvb9+pBsYx9OvXLxo8dCnIA6M0kv4t7KfHpvnIMKFht9hii8WGHnGMrgQaha+//nosnxnkjMeacpl78ITzLRy84AyCppHJOZBWvI+ymRk77NeXp53XS09VGSZUMCy6Q8LHgMC9S2ZQwUMBR4GE4UHfJgs0UcCxeiSWOt/BwcXI4k1MSaQAVKYhodN/yae2mUevL5TqeorOuWBredK4z+oAKrRAuihwnrThFlTrkMavdNE54h/IozQeWGKcmXTkQZBmGJLMvGBcwvnnnx9OOeWU0LfG2GhIwCghUPExG0ReGP0d+huE/jZTHGjI4cnAKFl++eVj+SyvCXFPI5GuHPShDMY4oVym64dyGs05TxcQM2/Iu9JM30JjlVgME8p9rtWnIdeyepvWoyr7Euhu4aNdSy21VBwkJ0iIFGx4QjBAmK2z9957hx133DHsuuuu8SN+fDqdrwenA2TJULgfu3TpElZbbbXYTURllpJmACf41qW+QgZNdJ6tuvYo0FSoqQDTPab4EK/EuwzALMo7tI61tDjjS/Qpe/Kf8hu6KV+Sl4F3NjSk74Hs36WtaTnwaLMiL0YEXe/EeZoG8JgxceHII48Mu+22W1y5e88994zlNZ8ioDuHAbI8I+1ojLJ+DQ1HunOkcyGUfkzpqCrDRAUP3Sx8Y4EP8uE5wYtCpcR1CiR129Aiw3WIx4QtBgkFoxI99zOOBOOGBL/JJptEbwkDqyCbwNNjniWY0pDqIh2oyOrTy7Qciuc0rpU/0jyCt4TuVQZDMt5AXTipMaJ3pMcNDXpOpNf0GzoPzr/FRXpjjGCUUD7jOeEzAprhSB6l/KXxiOeMcpnpxYwrIW3IKFFe5jkZOqxhQ6NRY44UTP6oKsMESIgkTDwcfBuHBIvnBGNF3TpKrGo1pWDYaOwIU85wD5J5mAGARc6Ib4wcFV5Z6jtvSo8KM+nPvtIA56xd8SFOFXQsiHMFzmscAS1mxhvII4JGqeEg/RpL+neoRa1z6TXTchDvlM9MUFh33XXj98w0Zg8jAw2kr/ZTvZUW9B59P4evyLNVOT8lsu80rU/VGSYqwBgTQl8mI/f5urD6NEmQJGolTvZVSLHleQ24okuIr1nyZWK2GCkkeq5lM422pnWQBmkQ2kcT9tmm3QEpqW7WsGUgXpXnQJWLdGJLnmMmBoMaaRVjlHC/nhU61jnd09AAPKvGB+h9us6Wv0+DY03xIF6BRh8fWt1qq61idzrr0ODZJu7RRvk11UXHBMp3ynSmi9PNg1EiT7Z+Q6gM0L6wtqWj6gyTtHBhQBTTCZlauMcee4S99torJuSuXbtG9x+GComcBIq1jjcEFyPWN32bJPhevXrFsSWaHsx705CFc07wLUt98avzWY04r4pQQWhf95jiIg3qQ/GOEYDHRMuS61ohOJ/q1pigZ6R19u9Lr1E2mOKRxj9xm5bPlLV8Ab53796xfKZRSBcP92GkMNkA78jKK68cu9Qpy3ffffe46u9yyy0XJybImJGe/I5+U+gcYUrp0rQs7foyR64RMFOFvjz6+KikCSSeVMQ8C8rfliZMLGvGiDDmBAudPkgSvALuQPo8SfT8X1msiW6bHj16hG7dutX1gabuQb0/Gw/pb2ev5QHWg9A0aVqoqb6VQhrvDGCmBU63AGmBqYoKGKEUgHyBlvRBoabCKo/aNYS86putBLSvrQwTDBLGEzDolUor1QtvJaHQucYGdF9ppZWi7jQ2BH8n8PeoQsxTWsCTxKwUxt/wt5Vb/iUuFcfAPt3iGnPCN44wSPB84D1hSyCv8n/EAGHyAV1AGCR8HwmvOEYL8QH8hjTTb6XnQPvpuTzA+j2kfwJ5uJFVd1nRpkacyU3GqUBkYJwQOXgLCFTQiJgKnVey/10KGRU0FH4MnKLgY0vhrW4brlNI4WIkYNAQNJ1tapRD3JDYmS6JvsSB9MUQKycKxXX2HJqjLUYJXQS0xjnHdQU8ZuqTViWk58uRPOpLnAvFbTaO0U6DHhmUjlaayiu4p1jaoDtGiWZppe/ld5ROuJYnGJx/4IEHxu/JUFaVa/4lfpVftVX5TGMCA5W0wDF5WFqQRymbMURoUBIHMkhIPwR5tSHN74LfU1pKz+cBnAEDBgyIgTysuKlEqtIXqcQHJD4SNYGCCEuclQGxzPGg4Emhf5MtM24YNItbEEudRK73pO8sxJSumeLSkEKF6+hHC5luO/SlVYbWCkwrxPhU4WYNi09Wp0K6cQ4N8JKQ/xgMmWqV3W9uwDvKb6V/S1pZUlYU+jtNcSBuFVQ2s0/5jHeafKlFMtEL3fGm4B1BOxoTMirRDIOErY4VUg2lb3rOlI6qHGOixKeEWKg1nO4XYmrXgfeLQven103rkuqNDkoLBOmSnk+PTfEgblXxKJ5TFN+6T/eCrkmXrDbZ44aQPpP+Tvp+/a1Neb+ZMsRpqrVCiuI/JX0GUkNSnhE8n2wL6aig86Bj0/pUpceEhKdErEQolFhF9jglvVbovvR4atdNyzKl+E/TAkGFW3o+3TfFp754nVJ8S49Un5SmaJU+o3en789eN8WlvjhtTLxzncam9MIgUdrguJCO0lfHCqY0VKVhYkyW+gqh9LwLqvzS0tpY+/Iim2+npp/1zRc2TIwxxhiTG2yYGGOMMSY32DAxxhhjTG6wYWKMMcaY3GDDxBhjjDG5wYaJMcYYY3KDDRNjjDHG5AYbJsYYY4zJDTZMjDHGGJMbbJgYY4wxJjfYMDHGGGNMbrBhYowxxpjcYMPEGGOMMbnBhokxxhhjcoMNE2OMMcbkBhsmxhhjjMkNNkyMMcYYkxtsmBhjjDEmN9gwMcYYY0xusGFijDHGmNxgw8QYY4wxucGGiTHGGGNygw0TY4wxxuQGGybGGGOMyQ02TIwxxhiTG2yYGGOMMSY32DAxxhhjTG6wYWKMMcaY3GDDxBhjjDG5wYaJMcYYY3KDDRNjjDHG5AYbJsYYY4zJDTZMjDHGGJMb2kyqoXa/QRxxxBHhySefDG+99VbYYostwsYbbxy6dOkS2rRpU3uHKVc++eSTcO6554ann346jB07Nmy66aZhs802C6uttlrtHaacsb6Vzfvvvx/69OkTXn755TDddNOFzTffPGyyySaha9eutXeEQHHvsro8+fbbb8ODDz4Y7rnnnlgHT5w4sfZK5dFow6RHjx7RKPniiy9C586dwzzzzBNmnHHGmODbtm0bE/2ECRPi1hmgvPjpp5/CCy+8ELUdP358WHjhhcMiiywS5ptvvrpMgKbozLELufLC+lY233//faywvvnmmzD99NPH8nneeecNHTt2jNfRVDqrrDblA3l29OjR4c033wzvvvtuPK5UGm2YdO/ePXz44Yfhs88+C3POOWe0zEGFGEGJ35QXSvi//PJLPG7fvn3o0KFDmGGGGaK+gkKN40YmHVNirG9l89tvv0Wj5Ndffw3TTjttLJ/ZygCRpuirY1NeoBkG6A8//BAdAJVKkwyTjz76KLqFZ5pppjDNNNPE8+lryAjpcSN/wpQIdBo3blws4IBKq127dnUGJ9ezOoP1LQ+sb2VDRYVXjC3lMp4S9EU/aQmcS70npjyQhmPGjImhkvNlow2TddddN3zwwQfRYmN8yWyzzRYTeLYQSzNCJUdgJcG4A7rp0JdW9frrrx/1pYVFQUeBp246yGpu8o31rWxoSQ8bNix89dVX0SihfJ5lllnqDBX0pKyWxtLXlAfSa8SIEWH48OE2TFL23HPP2E9NV07v3r3jwNeFFlooXktflSZ8F2zlwahRo8LNN98cnnvuuViJ9ezZMw6cYywCWmZ1tL7lhfWtbPBin3feeeH111+P3jDK51VWWSV06tQpaimN1ZCUvqY8+Pnnn8Nrr70WBg0aFIYOHRoNzEql0YZJv379wuDBg8PIkSNDr169wrbbbhu6des2WeGlBO+EX17QkkbfIUOGxExAxYXG6KvCTOMPrG35YX0rm7fffjscdNBBsTXN2L/tttsuarzWWmvVaapgyg88YQMGDAi33XZbNEwqefBro9cxIYHLCCGBU6DRZ80+hRpBCZ9rpnxAN7l80ViVFJa5tOUYXa1t+WF9Kx+0lZapvqmu7IO2pjxAWwYzo2ul588mGSZK/Gy1n8I9us+UD2iWFlwq3NAxvSbdTXlhfSsf9JOWtKjZl86FtDblBbpVg3aNNkyUuBU41sh+UKIHnTPlg1pX0k4agzJDWsCZ8sL6Vi7olQYZJunMK2ltyg+0JP+qfq1kGp1KVaARQUr4OieUMQim/KDwIjBzQ1NLs4VatVjulYj1rUxUDktLuu00XZiyWhUa17J6m/yDZmhaDbo1+n+ogopIUkbQObYkfl3TdVNeSEcVYDpH0LE1Ll+sb2UiDRV0DlSZyTixruWJ9Kx0/YpumBDIBNVg1VUqFF7SkRYXpLprW+mZo1KxvpULOqZBqDsne96UF9ViWDbJeiBhq3CDtDBTBjDlCdpl9eO4kLFpncsP61vZoGEhfUEaW9fyRvVvJdNkw0TBVCZZjV2YVRbWt/JoiIbW2ZQD7m8xxhhjTG6wYWKMMcaY3GDDxBhjjDG5wYaJMcYYY3KDDRNjjDHG5AYbJsYYY4zJDTZMjDHGGJMbbJgYY4wxJjfYMDHGGGNMbrBhYowxxpjcYMPEGGOMMbnBhokxxhhjcoMNE2OMMcbkBhsmxhhjjMkNNkyMMcYYkxtsmBhjjDEmN9gwMcYYY0xusGFijDHGmNxgw8QYY4wxucGGiTHGGGNygw0TY4wxxuQGGyYNZNKkSbV7xphS4/xY+RTSOHsuPa4vTTitlB9VbZiQYLMJO3sMEydOjCG9Jjina4Wum9Yn1UL6iOZqlH13+r7ssWkZCuXH+uI+e4/JN9KIrXQWWd3Tewrdn55Lz6foHr0T2FcwpaHqDJNCCS57Tsdt2rSJx2wVgGsTJkyoS+w6b0pPWsikmmbPKxSDQu8q5vvN5GTz4pTimfvQXnk1Rc+mwZQW6ZpqrLxbSJ80HaTPCJ1L78u+K3tNZN9lWo+qNUwIhRIk57QPuq9t27aTnbdhkj9SHUH70pTQXK30vN6VHhfj/WbKEMeg/JjGO0HHWQoZJqB763vOlAa0QGPtF9IGvdN7lAZ0DNl7skHPpM8RTGmpOsNEiTRrhaeJM03I3Kd7tc990047bbxP10DPm9JA/Kf6ynjUebZoxVahKfAO3i3dU5RGoKnvN/WjOGer/UL5VRoAOrRr124yPbjO/UoHvEPvMaUFbZS/pA1II+mY6p+ehzQtANvffvutTm8C9+gdgvPZd5nWp+pyohKiEp4SKSHNEMA2va6ga6BjyCZy0/qkOqmAyeoig4XzTQkg3dPjNJiWIY13xT1Iz6wGhfTKGpXsp8em9EgvQBuOU51SvQppl00D7GOcgs5rm5I+U+i9pnWoyiYCiU9BUFiNGTMmfP311+GTTz4J77zzTnj99dfDG2+8EcPbb78dPv300/DNN9/E+8aPHx8TLpWfyQ8qTNCFgujXX3+Nmr711lth5MiRMbz22mvh1VdfjdvGBN7Bu3755Zf4/rTgyqapNG2Z4pHGq/bTSiRt7XKOfD169OjwwQcfxPws3UkHn3/+edRSrWpTetAM/dJGhQJaoSW6ffjhh7GMVn5mSxmNzp999lm8b9y4cXXaqjwQvFsBeH+WQudM69CmJvIbFft9+/YNgwcPjgmhV69eMXTr1q0uEYHELgdIuLj4SPTvvvtuLLheeeWVmOhJ4CTu6aefPsw+++xhySWXDCuuuGJYYYUVwuKLLx46dOgQEzzv4P/MfjlDpu7Xr1/UF+NL+q6zzjq1d5QHpEMCerz55pth6NCh4cYbbwxfffVV1IkCCs0aWyHNM888YaeddgprrLFGWGyxxcI000wzWVrPe/qvBH3TOGZfca08qH2lARoQDz30UBg4cGDM2/y/9ew222wTdtxxx7DwwguHGWaYIT5bzlAxH3jggWHEiBGxq7lc828W9MTApGFII/H555+PhgnlM4Gye7rppgvzzjtvzKMLLrhgLKeXWWaZsNBCC8VrMkqUTgqV1UozXGMLSlN5YNSoUWHAgAExkIf1N1YiVdncR1ASKIXWF198EYYPHx4uvfTScPHFF4cbbrghPPDAA+Gpp54KL730UizMXn755fDcc8/FAo4Kjnuvuuqq8Pjjj8cWNIaNyQcqXFSg0HJ6//33Y2sZY5rQFG8JIesxAaUl0zqkhbEMjFRv0D3kS4wxKjLyM7qrhU16oFIbO3ZsnffT5I8vv/wyPPPMM+Hqq68OF110UbjyyivDXXfdFR577LFYblM2oyeNSe6jwr733ntD//79w2WXXRauv/768Oyzz8ZKnTSiAOTbNO8qDSg9pWnKtC5V2w9BoUW3DAn6nnvuCRdeeGFM/Pfff38swGhdUwFhqXPv999/HwszjJNrr702XHLJJbEVhvFC5WfjJB+klRSFzk8//RR1RkfgOvvNMSZ4Py0wtrxPQb+bnjPFo1C86pi4V/xLF7wj5G/y88cffxwNEF0DtqQDvUPnTemQDipz0e7uu++OjUYMjVtvvTUaGu+9915sJKApsP3222+jJ+XFF1+Mz1xzzTXh8ssvD/fdd180SH/44Ye6fM9vpNpDmn5MaalKw4QESSLFxY+RgXVNv6USOddJnHLVc0xGUQLGYCEDYLljoOBNofLTdVM65MnA+KA1TOGFkZkaJmiq0Bh4VkaNCjXewW+y5VgBGvt+M2UU19JYOkgL0D10wTJW7Mknn4yeLtKC0gCkWvGMgiktaCAjY9iwYbHb4pZbbokaUmZDqn+K9ENTym4MUxqTeMF5D14z3qtynvu5l3TBVudM6alKwwS3HlY1ljT9sbgLMTaU0JVgdcx+NuFS0NHniZuY97D97rvv6hK9KQ2qpAho+uOPP8aWV6qLtGwKMkKyNOedpuEobxLYl6EiTdAfo4SKDLc+7n66bPSMdOJ+PZPum9KCPuRZPCJ4rzEmMDAxMmRYqlyWgYJ22pe+3ENjkufwltHNg7ebbl3ez316Lk0/Ik0rpvWpKsOEhEbixtvB+BA8JuyTKLlGAmWg61xzzRUHTS2xxBJh6aWXjttOnTqFWWedNV5XIqbiw9NCgqdl9tFHH8VzTtClgXhXoQVUUBRMFERpqwgaqlFaYKkg0zlt03dxLn3GtAzEufQgANrTYCAfUqExVgwXPg0G7uEZPSeNrFd+QBs0pOFIFxweEyYhMLNOutGFOuOMM8aBrpTLDHBddtllY/jzn/8cz3Nd72LL87yH8p6uId5PecD70vSThWdNaahowyRNnMA+Yw5w7z3xxBN/GLjKSPb55psvbLHFFuGEE06I3Tw33XRT7N886qij4uwjRn3rnSRsnqcgfOGFF2LrTJUg9xQiTexO+MVFBQ2gAZUU438IHKeoQEorpey59FjnZOCkzwnOp7pb39YFvWlo4La/7bbbwtNPPx0NU3RAN+kJ0olj65Qf8Gwyu4jyWZ7sVB9mQq688sphn332Ceedd17shqerhvEk5557bthjjz3CcsstF9q3bz9ZHqXcp5weMmRI9KYpHwulh/SZQnnctA4VbZhAmriwnHEL0opi2hktalACXWCBBcJf//rXsNlmm4W11147TgvGEl9llVXilLsePXqEVVddNRonGDE8R4Im8zD6n4GweFB4r36Xe/T+NCOAE37xUZxSwNGFg/GZDpJDN/Rbd911w8EHHxyOPfbY0LfGCGUafJ8+fUKf44+PWwxT9o877rgYjq/Z/8c//hHTB88D2ktT/W6qaVZvU1yoXNBA+ZqZGtddd12dpwT9VQGlAdBJAaxV6VGepeuFLpeff/456iuDcpZZZoleEsrnDTbYIHTt2rWujMYY4XjDDTeM1/GedOzYsfbN/1univfStYehovRDSFG+TvOyaV0q1jBJCxolMAowDAj6LzEgSJi6RsJfZJFFokGy+uqrx64cDX6daaaZwqKLLhrWW2+9WDGxhgVdOvyGEjUDLJm2hlWuQVoiLQzBhWDLQyGHCx+jRBUU8c+aBn/6059iwXbIIYdEo+OEGqMEQwTj4/haowRDhX0ZJRgrhx12WFhzzTXrDJOsrmwVTMuQ5h3yMxpT2dB1c8cdd8TWM+O90F1Ij7QCkk7p+5wvSwt5lMGplM0E9EUjyma2c889d1yfZP31148GCV3rKqPZzjbbbGGllVaKxgnGCmtPpZri3WZ5CDwxlNGUEVwnpOkha6iY1qfiDJNswiKxAedJ6PQvYi0DGQFoReP6YxwJfZb0Ueo5wT1UaCR4Ej/WuO5hS0LHKMETQ8Ln3fxmIThf3zXTdIhTxTtbFUCgVhd91GhHoTbzzDPXFUYpqa7cT6HHszpH+uL9eqfeoaD79IwpDsQtcc+WSgVtcfmzvsWZZ54ZB6GjOR5L7pEuIJ2E3qX3pfumNJCn6ArHKMFrQnkN0ofxI8svv3xsGFBec55nuCbI23TH4zGZc845J0sDGCZ41nh/OgA2hWMtBWBKR9WUnCRCEibTejFMOCaQqEmEVFJzzDFHtLIxQvRMmkDxkpA5WClS9+g6GQRXITN1aMWlmSXFCb5loQJCN7WmcQeDtOY6RgkBA5RCKIvSBqCXNMueh0L3pudM8VD8oimezzvvvDOua/Hwww/HFX5pdGhMAjrjHWNMAnlVemS3emcaTGkg7smPeKvxWnfp0iVOPqDBiJHBpAS8JhglMvpT3Tgn3SnHyd+6B8j/pA/KBspr0HNAmlC6gHTftC5lb5hkE1MhuE6ixDDBUk4HVLElcWJpE1iaWgkZ9H4FunXIIKrQ0nt5Py02BlvKTQjpPZA9NsWBeKWQId7RGB003gf9OY/3g0KL/moMTbWOuMZW+yK7r/v4HbY6r2dBv2WKD/HOIFcMExbRYkYc40loFBDvaIAxQquZ7le8nORZyGoJ0oytKihTGoh/ymDG9LGUPpMQNtpoozjp4C9/+Uv0ZtMwTBuO5F/leZ0jcA95PdWZ+zBa0iXqOa80IHSsZ03rUxU5kQRGoUUQSnxKmCRaEishTczaV6HFOVVmgnsIGCO02ugnpfDU76X3go71blM8pDOtInSgdY12xDmBworWF60p7kMDbYF7dL+uEYDzCrpeSMNC50zxkC6pHnLp05qmAtthhx3imCAqtfnnnz/qLm2lH/eTZwnsW7fSgsHAd24wQviOETNsGAfGmK+zzjor7LffftFokSdEoB2BNECggUijJPWWorc83jQsZazyHHA9RWnFlIaKjHklMrbZwkbHhRJeNnEC5xT0LM/JOOGczpMpGGgpr4wSvWk90ASjBB00nihNA1xHO/qwaW0zzfDss88OJ510Ujj99NPjpwlYaZJ1abiHQg54hwo+vU9b3gkcE1TxmZaB+FVrWPGNF4xZGb179w677rprnJnBQEkqIryghfKi0oL0smalBR3Qim5WumzwejFTkq4dxozg/cKjwn2AXugv7ThPuUuDhLzLGCTpC+xjlBDouudYaQikP2lF50xpqAjDJC1QtF9oSwIlpOcIJEQqMxI1FVGaKHWPEjD3UjnpHem9XMOljLck+x49b1oWdFE3jgyTtFKSV4uVIFmjhoGTZ5xxRjRMTjnllHDOOeeEK664Itx+++3ROOGL0xR0dAmpwEp1VPpISdOYKT7EL4YJLWAMEmbT0ZLefPPNw+677x623377aKQwZox7oJBBqfJAlZfzZ+lRfkIP0RBduJ/naBQyCYGZl5QBOs870JmBsxg9GDjyoilfC/adFkpL2RsmJKwshc6RQEmIJEgKKyVWIGEyjYyBq0wzVCGWJlju5x24B6moqPyy19jyLM+xTwDuSwOk103xIO4xCjEQGe+DYYI2QHxTcDE24eabb45fIWWKNwUYYHwwap+F8vgqKQbLaaedFj0rpA0KNlViwPvQk98kgK6lWpviQlyjA100rC3EWjQYlbj+WXyL8UPkdaDBgTEK2fyWaiQNrVlpKRT/6KYymX3pmN7LPvewwB75l0XatH6R7qPcZ9wRXjS6jZRXgXvS9+s3TGkoe8OkISihkTBlLaeFEPsYGlRKTPdVK1vPcR/HVHhUdljj3M+1tCLiOkaLZoOQUXQNuB841jlTfDBKmH2FEULFpLhmq7EnrDvDPeikwgt90BAXMNdZIZLpqHTtPPjgg3HFYO5P047SSKptet0UF+KVcSS49zFK8JKstdZacRo/rn8GvmK0pJqwTfNpSn06mtKg+E91kn6cI2+JVCsaFXg38XKyumu6qCLPYayy/hRLPdAlpGfZpu+B7LFpfSrKMMkWOoKERsLGMKGVxeBHLGYlQCV4XIB81I8R/4xR4Lyu0T2DVwXDhVa2DJP0HWQEjBINvEqtfH4/vR+4ZooL8YthiWGBZmiiwkx6Sgft63xaebHP86QJjBK8K3xfCcMU7UHvSQPP6vc4NsWF+GXwI1NIWSRvjTXWiEZKOoWUe4D455zyHnBN11N0r8kH0ktbaUjeQj/2FTBKKJtllPC1d8pfXedZjFbGHBHozknTQZo+RPbYtC4VlROnlpgwRjSQioJN/c8CN+AjjzwSv7NB4qblTEaQi58FnAjPPvtsbI1zTZWQ0N+gDAScSwtDjhVMcSGe0QbDRC2mFK6nuqX6pUaM4Bj9+Rr1wIED42cH8LTUp501bVmyRgbIoOA8+zrmOuekue5nq31dN/kGjdAKbxj76KnAQFe+JE33K9046mbXM5TzSy65ZFy1mVk/eNWUTrgObNN9U1qqqolAvzMjspdaaqm4gqBWD1QCpgJiLAELNjEAkvEF/fr1i/3XfDCKxZyooDBY8IbwTFooEngXKNEThK6BftcUD8UpXTl4rSi00vinUGPEP9MRd9555/hhRpaaZ8n5o48+Ouy///5xuWsKL9KK9OE9dP+wiBdLn9N/nXbpEEgP+r20YjT5YGpaWKv8gBbZvKtzOk+gW5avBvONJBoNeLLJp9wrPZnlwyJtfOOsc+fOdbNxTL6pKsOEBEnCxDBZbbXV6qYSplDh0CpmXIFmazCNlC8MP/roo9FzQqJX5lAllKLzha6ZlkXdZxgWWsmXNQswQhlfxMe+WLgJIwRjJH64ryYcc8wx8SN9TDdlRgfPqbuPQCuM2Ty0yDBQ8MqkY4hUEIKM0vScMaZhpPkpzUfpefIj3TeMAbv//vujx4T8ideTZ4A8T9c9Y5BojOApz3rJTT6pupqThM30Qj7IxxdmGaUt1AImYatykXEha13XNeqfjJBmGK4ROFYrWs+l6D5TPIhj9KAwYmEtBkeiMy0ldN50003jgk3bbrttHCxJISV9WSmS5xi3wJRTPtaI4SotgcKQAXZaIyH1mmnApeAZBWNM06DsVAOAPEbgHB9uZLZc//7949gSTVhI8yJ5npVjt9tuu/jRP+V1k3+qTikSLH2MfO+GEf0sxMQ3GVIXX5qAVbFwDgucCo2vV1LZ0QLXNQLGCi3t9Dss/J4CuMJqOYhjDAxG3eP12HLLLcMuu+wS9t133/D3v/89ekNw6bJoE14ULW0t7fCeYYzg+qUgYx+dpB1GD4ObGQDLGBYMFQpDkMbSVsd61hgzdVQukieVf9gHrjEgnQkIdLer+4Y8KbiHfMy0cRoilAF4Sijf9U6Tf6rOMCHhkkAxHtZee+3o1qdlzWhtKizOk7DlEaHyYnoxRsgSSywRvSxbb711nHbGeBXgfQTuZcYPxgmGCe9QRlAmA2U+U1yIXzSgC2fxxRePg90wPFmefJ999onjRzBa5ClJCyrpwzX0Y7CcDE+hgpHBrxgm6VRkSPd5F+83xjQM8o/yEPmHfeVLoJsdbyUzbwYNGhS7b8iLqacEAwSPOJ4STSWnTHdeLC+qSi0SOomYLQmVMQQYJCxhzQBIvsVAFwAzdvRVUowPvCM9e/YMhx9+eNhxxx1ja5rMQsUEuBrlbuSdMkj4LYU0w6UVoikuimdB3Gu2DXEuV7DSQrqvZ9Gdbh0MFHnRBPfgNmaQHajA07P8hrU1pnmk+RPIU3SjMm3/uuuui8s6MFkhzbs0KJk+zvgxBrdTtpOXlYfTPG7yTVUZJqo0FKhU8Gwwxx3X3yabbBJ222236PZnxsZxxx0XjjjiiNgVwNcuaYFjtJDQMUqo8IDETuB9WOwEMokMEIUUPWOKi+KV+Fb8pvGva5Bqkt7DFs8JOqfvEOhONw6k51P0nDGmYSgPKk9pHwPk1VdfjWNKMExY+JB1pmgMks8ow1kGQl033bt3j131eLr1jrQsNvmn6vxbaeIkUROogGabbbZoYW+11VbREMEgwTBhsCReErp9SOx4RJiRweBHeUxEOsaE8SgckyEIhXDlVVyIT1ZuxaOBi5exIJ9//nmcScVgOfa1/owKKmDLsdJDmj7kCQNdy6YfAqTn060xpmEoDwF5kgbAZ599FteXYvYN0/VllHCdBiCNxdVXXz0OcqULh25Yyl/epfzJfn3lsMkfVaUUCVTuQe2TYDFMlGg5R6LXNZ3TM1R8VG6sd8JaGWlGwhBhfAMDK+U+1O+wzZI+a5oPngy6WFhrhu/hsO7MpZdeGk499dT4PRXWptGqkEIaSFvpLqNS11L9ME5ppYHSSiGsrzGNQ2WtykwtesnyDSzjQB5XYwGvpiYx0H3DwHa63rP5Tu8z5UPVGSa4BbX0PHPgGUR14403hquvvjqu+KqpZ7ofSOhK7HhKsOBpkTMQMq2w6M+kWwivCRUb1wh6Vsd6xhVXcZFh8vTTT0dNMUzuueeeuAATy8k///zzsZ9afdPSAdjHEEETPGFoTMtM2qcaYpTgYUPvQhqm9xpjGo7yGnmZPEhefuCBB+JCajQEMUrIV5SxjPVj6j+zJJdZZplolOBBAe5R/tM7TflQVYYJVjOVEgtk0V/JdDMGUtGqvvDCC+M+lRgVkix2QppZmI1BtwD30MJW4qcVzdgS3IrZQZNpxkgzjCkuxCvGIoXY0KFDY3jhhReiMYKHi28gcQ3tNKNGurBFM3TH+CSNoHWqHYYLrTSMEmbsoLmMGd0D0tg6lwfWKT+Qj9ADr/Qrr7wShg0bFhuQGCWUv1wjD7JGyTrrrBMNEzwldJ9zXl7OFOVRUz5UnccEYwLDglVc8ZBgoNCSHjlyZFxqnOloZALuSxMzljqZhS8LM3ceA0dwH8YI8+WZpkrFxf3KJHIjcl+aSVwgFhcMC7rSWFIeA1GGg3RgrAldOayDgMcLUg3Yx2jBgHn55Zdjiw3tpB8FH4PsKBSZdozHJAvv0P36XVM8Ur3SfESc61qheyC7r7Qxpe44UxxSTQrBdd1DVyt5kIYjHhMZJUCeZlkHxvwx0JWuHDyYqbbAsUJK+nekaUZM7e80rUNVlZwUQrj6CFRiJHgW56Hrhu+rUBFRITE/HkOFcyReMgqVGt4UWuFcSw0TYDEuFl9jS0bhtwpljJQpXTONh+4zjELWMWDNGQbAqcAjYFjiMbnrrrviWggUfuiIxhiiGCsYLnyoEU8LS1xLI57nfbiPeTe/I69YquPUNDfNo764re98anCgIfcpb3KsBoQ1azmU/xRE9hg4pnH4zDPPxAYjns7Uu8kWjybjyBh3cuaZZ4aTTzop9Ovbd6qhL9t+/aLBw3L28sAojaR/C/vpsWldqs4wwWhgHAgtX03pFRgqtKYZd8KAKyoppqlRSTFGgQTNlgFZmi5K5cQ7aUUz5RjPSX0uReEE3zIQ5ww8RgsMCNy7GCsqeCjgKJAwPBh7ggFKAYcHDIOU7+A8+OCDUX+mJFIAUhgS0JTF81ZZZZXoGdMXSnU9Reesc8uTxn1WB0grGOmiwHnShnS0Xi1LGr/SReeIfyCP0nhgrB+ebfIgSDMMya+//jo2Es8///z4gdW+NcZGQwJGCYGGCTP05IXR36G/QehvM61PVRkmJDzc77j5qbhmmWWWaFikCRLvCdY6iZ4F15gqvPfee4cTTjghDsLCc6L72WKU8KVi1jjhQ1FUhmpJpxlPOLG3PBidaMHHGjEUBXpRsOEJwQBhtg7aojGL7PERPz6dTpdeOkAWPXEf8+kCPv5I+skanqmuaXoyLQ/xXSjO0UTn2aprD2OEwDkM1/QeU3yIV+JdBmAW5R28lozronHI+BI81kD+U35DN+VL8jLwzoaG9D2Q/bu0NaWlqgwTIOHNM888cc0SKhpW+EwrFRIsVjoGCAMg6bYhozC2BEtdXTi8h8GutJ433njjOABLAyK5psxjWg/inUKGbha+d8MH+TBA8aJIF/RVtw0tstdffz16TNhikOgbOGjH/RiyGDd4SliAD71ZuAmyGqfHPEswpSHVRTpQkdWnl2k5FM9pXCt/pHkEbwndqwxWp1tdXTipMaJ3pMcNDXpOpNf0GzoPzr+lo+oME8BTwjgBvjyLgUJFptYUKGFmUeLFgscoYaArX6FlUR+mq2W7hkSawJ3YWxbiFy8WHg6+jcO3MvCcoLG6daQB+1nQTx4v9MTYxCPGDABWlMSoJa3Ul0bqO29KjwwT6c++0gDnrF3xIU4VdCyIcwXOM6OOBiBjTBiELo8IGqnsBenXWNK/Iy3r02DyQdUZJkp8GCdUXHwDh5YwFZDWHhFpBmBfiZmKjxb09ttvHz8Oh1FCq7zQ/YRsRtKxM0LxUQHGmJDFFlssjtxnJV+MC7rZpAvbVCNgy/N4VHgHXUJ4w/hEAds0jRD0DtDWtA7SIA1C+2jCPtu0OyAl1c0atgzEq/IcZA0NtuQ5utHxVLMWEUYJ9+tZoWOd0z0NDcCzanyA3qfrbPn7NDjWtD5/zKlVAAmPVi+tX8YM8B2cvfbaKy5HT/cO001x1ytRYnRQSdFdgyHD2BPGJPClYSo/7qXCgoYkZGUAU3zSwoVZNEwnZGrhHnvsETVm3YOuXbvGmTsYKhRIaEaXDemBmVV40vhm0p577hnTBmlC04N5bxqycM6FWctSX/zqfFYjzqsiVBDa1z2muEiD+lC8YwTgMeEzEsye07VCcD7VrTFBz0jr7N+XXpPxY1qfdn2ZQ9UImMlAPyADCCnECRT+qbhTSoh5gL+PRIcxQeWE0YG7n6m+GCEYGsy6INBKZlwBXT502+Bd4VP6eEyorDR2QUFk40CZQuez2zzArCRNo6UFk+pbLhCfilPiHM8JY0QYc0LXGwNX9aFFAt4v1j5hrBH/V4xPum169OgRvzSNp4X7ZHhCfdqlv529lgcqQd+pkcY748FogdMtQFpgZVAFjFAMVPI16YMWNPekGpYbeBqYUcb4DP4/edFX8Sq0r60MEwwSLdNAoyLVi3KYUOhcYwO6r7TSSlH3dC0ildH8PdQPxGGe0gLLVhA/BPJwI6vusqJNjRiFzdJ6IDK0zgetSQIFOALqVXkSM4W/L7WU1VrmHAMeKcjSLYU3kHi1/okC52RR43ZkX+8DtvyG4oLf0H5e44fEznQ69KVwkL5U1OWC4l8Q7ypoKPzQlf+b9CXwDNdTnTFoCBieDUG/m1dtoRL0hUJxnT2H5miLUUIXAa1x5UEFGiUae6RKSM+XIwzePvDAA+PnNkjLedCXOBeK22wcox1lKHlSn/rQVF7BPcXSBt0xSjSuMH0vv6N0wrU8gTNgwIABMZCHleYrkaryVZHY0pBCJUSCxWtCq5rWtVocfK2SVgfXGJsiLwmwVQKeUkLJ/p5pOdBBWkgfArrhEUNHvGRojCeFMUJs8YwxaJb1SvCaUbjrPek7CzGla6a4oOnU8hPX0Y8WMt126EteRmsF1jMi32u8gTUsPlmdCunGOTTAS0L+Y2JCqlV2v7kB7yi/lf4tGCPSP2usmNan6jrRVEkp4aWJkQCy8gvdJzjOJmSOdT9b7UO6b1qONN6lR6HWcLpfiKldhzRNFLo/vW5al1RvdFBaIEiX9Hx6bIoHcavyUfGcovjWfYXKXOmS1SZ73BDSZ9LfSd+vv7Up7zfFoeoMkyzZzMAW1y7ndKygYz2je0Dnta/7U+o7b4qLtCBk4zurQfY4Jb1W6L70eGrXTcsypfhP0wJB+TQ9n+6b4lNfvE4pvqVHqk9KU7RKn9G70/dnr5vSMLnSVUo2ASqxTgknWmPKh/rya3reeTq/tLQ21j5f2DAxxhhjTG6wYWKMMcaY3GDDxBhjjDG5wYaJMcYYY3KDDRNjjDHG5AYbJsYYY4zJDTZMjDHGGJMbbJgYY4wxJjfYMDHGGGNMbrBhYowxxpjcYMPEGGOMMbnBhokxxhhjcoMNE2OMMcbkBhsmxhhjjMkNNkyMMcYYkxtsmBhjjDEmN9gwMcYYY0xusGFijDHGmNxgw8QYY4wxucGGiTHGGGNygw0TY4wxxuQGGybGGGOMyQ02TIwxxhiTG2yYGGOMMSY32DAxxhhjTG6wYWKMMcaY3GDDxBhjjDG5wYaJMcYYY3KDDRNjjDHG5AYbJsYYY4zJDTZMjDHGGJMbbJgYY4wxJjfYMDHGGGNMbmgzqYba/QbRt2/fMGTIkDBy5MjQq1evsOmmm4YuXbqENm3ahOyrOGfKh48//jicc8454fHHHw8///xz1HeTTTYJXbt2tZYVgPWtbN57771wzDHHhOeffz5MO+20Ud/NNtss6kvZbI3Lm2+//TY88MAD4Y477giDBw/+Q31bSTTaMOnTp08YNmxYeOONN0LPnj3DwgsvHDp27FgXSWwnTpwYM0Hbtm0rOvIqjR9++CE88cQT4ZVXXgljx46NBVunTp1C+/btY0EHaCvQ2PqWD9a3svnmm2/CXXfdFd55552oJ+XzoosuGjp06BB1bdeuXQzso6u1LS/Gjx8fvv/++/DII49E50Al69dow+SEE04IQ4cODc8++2xYZpllwowzzviHAox9W+flx2+//RZGjRoVvvrqq7i/7LLLRn1BRmaqsyuu8sL6Vjbjxo0LH3zwQRg9enQ0QCifMUqkI1vtW9fyBP3ef//9qHMla9how6Rfv37RjUSoj0KFnMk/JHppR6uKfZ1XK0uokEtb2CbfWN/KB83QUfoBx2id1diUF+iZ5t9K1rLRhon4bfyE3yOn9tgYY4wxprk0aVbOr+PHhwk2SowxxhhTZBptmPzuKbFJYowxxpji02jDxH3OxhhjjGkpGm2Y2FdijDHGmJaiSWNMjDHGGGNaAhsmxhhjjMkNNkyMMcYYkxtsmBhjjDEmN9gwMcYYY0xusGFijDHGmNxgw8QYY4wxucGGiTHGGGNygw0TY4wxxuQGGybGGGOMyQ02TIwxxhiTG2yYGGOMMSY32DAxxhhjTG6wYWKMMcaY3GDDxBhjjDG5wYaJMcYYY3KDDRNjjDHG5AYbJqZV+fa778Lf/nFE2Gan3cKHH31ce9YYY4z5HRsmplV574MPwxNPPxPefe/98MLLL9eeLW/uvOfesOLqa9eFjbfuHf+fhTj3wksmu3fnvfcPo0d/X3vVNIVsnE4p/htDY3Q1DePZF16cLE4JxHNzQRf0KfZ7q5lCcUpeK0Sxdc2VYUIBTUGd/Q8q5LEQ//qbb8MV/a8LBx1+ZHj/w49qz5Y/99z3QPjnMccXPb4XXXih8Ne/rBaWW2bp0HmllWrPmiwTJ04Mr73+RkxXpH0yfnP55tvvwgWXXRHW67FVfOcOe+wT7n/okTBhwoTaOxpP9p2b9twuHnO+GPC3XXjZlfHdeTQMChXeCvUV4g2F//uTzwyP5V4x/u+kqaeeGRH2PuiQsMpa64a1NtwsnHj6GeHzL76ovaPxTJo0Kbz+5luxrFi12/rxvbvuc0C476GHw6+//VZ7V34Y/f0Pk6XXXrvsEQbee1+z/tasYaxQDM1Gff11OO+iS2PcNjc9Af9PtCHv8zcSD8QH8ZIn7DFpJh989FFMOO+8+37MpJXCu+9/EL78alTtUfGYfbbZwoXnnBGuv+KS0GmB+WvPlj/LL7tMGHLf3eGlp4aG+++4JRpg9bHphuuHZx57MN573eUXh1lnnaX2yu+Vx7PPvxD2O+SwsOOe+4ZhTzxVe6V54KHa44CDwqVXXhONaRj5xpvhyD79wjXX39TktHvdTbdM9s5PP/s8Hh974snh+x+aX9hhkA24Y2CYYYYZas/8kUP+tl+MS0K/Y4+sPVscGqNrsaDyeHTosLDdbnuFAw49PLzy2sjaK00HI+fiK64O+x/6zzDiuRfC+PHjww8//hhuG3h3OPCfR4aPP/209s7G8X1NhXbKGWeHhx8bEn759df43pdefS0c1efEcN2Nt/whXXVZeaU6re648dow37zz1l4pDldceF7d+7fqsVnt2d/5+utvwj+PPm6y9PrWO++GPiefFi6/+tpmGejF5rPPvwinnXVO2Kzn9rHhS9w2l5/Hjg0nnnZG1Ia8D8QD8XHUCf3+kF9J66R54pI8QF6oj2LrmivDhAKagjr7n1NiyxbixlQan3/xZSzon3/x5XDgPnuFIw49uPZK85hl5plD184rh8vPPzc8//hj4YUnBocLzv5PmHmmmcLDg4fUFFDf1N7ZOOabd55w6f+dE54d+kjMo4Pvuytsu9UWsfJ7r8a4bQ5UJBSaeNh6bLxh7dl8klaIChhMTeHNt94Ox/U7JTYMMLR26NWz9krTadu2bVhwgT+FA/fdOzxyz53x7xv6wD1hs5p4xWh98unhtXc2jjZt24Rua64R7h5wY0xThJuvuSIstcTiYcgTT0bjJw9gIN1xz73hxVdeDUcddkgYPvihGAcP33172HiD9cLtd90TG2NNJW1sKDTVkP2txjC9/Jprw0233hFW7bpKOPc/pxXFgJt+uuni33PsEYeFJx66L/6N991+SzQqyK+vjny99s7SU7YeE/VpHX3CidFdRssPdxfuyXPOvyhah0KuNvq8cI3KjbXFdjuFu++7v85SHjduXHwf11K3WXqed6RdTnv97e/xHtyhW++wSzxHKNTtxO9cdnX/8NcNNgnX33xrsyx0/j7+Jtz9/H822mrbWJm98NLLYfNeO8TBpWnFMHbsuJq/fVB0s+JuJa5oPT3z7HN1rZq0n/DKa6+PLbVum2xed46Q9hvKjc1zuBxP+veZdRpcW9OSTt2jPJe+pz4354OPPhb/PrxQafygJxrz3Ds1BWmlMvdcc8bKov+lF4Z99tg1dOwwY+2V5jHnnHOE4488PHRdZeXQrl27WFGtvmrX+Fvffjc6/PjTmNo7G0fvbbYKq3VZJUw77bTxeLZZZw0brtc9FoLTTDNNPNcU0P6WOwaGUTUG01677RwNqGph4YU6he233SbceNVlsdXffgreoobSpk2bsPkmG4d9a9LUnHPMHs9hrO66w3bRi/nFl1/Fc42Fd+yz+67R+0maIiy5+J/DajUVavsZpo/HeeCnMWPCczXlVI+NNwo9awzn6aefPp6fa845w3577h7TajE8U8WAvLTOWn+tMUqPCmefdnLotOACtVeaB/l+z113inm2Y8cO8dyf5ps37L7TDtHTRRmeF8q+K+fZF16KxgF95bi7sNCvvv7GcNOA2//gRrz6uhvDwYcfVefGYlZI31P/EwY9+FA8bmk++fSzMPCe+8JPNZXArXcObHJhID6raV2f/J+z4v+Hd1113Q3h9LPPDR998mlsBd1z/4N1cfDAI4+EE045PbpZSYTEFf3Nhx/Tp9kZkgy/14GH1Pyf7qrT4Mxzzw+PDh5ae0fDWa/b2mG3HbevaS3cHo0m4P/wwMOPRnfx/nvtHhZbZOF4vhKhUNp7t13CsksvFSuT1oAKBEOiudANRdcmRum6NToutugitVcaD9rfOOC2cMTfDwqL1FTU1cRMHTuGvx+wb1hg/j/Vnml5OhTJAKa1P/SJJ2Ne3XiD9WsM698rwFIzYfyEGuPk59C+/QyhXcZYmr3GmMZYo3zOC2v/dY0ao3TTMF2twd8adJgxH1pB2RsmX40aFWaaqWPof9lF0Y14wN57xPPDn3suWskpDE5dv3u38Oi9A8OTD98XW4tU0ncNur9R/eFplxMuXMDVRveT3HhT63b67bfx8bebw4svvxJmbN8+ulE3Wn/dWCDQ2sKFuGqXztGL88svv8R7O3boGC1w3Lf8fbjzzzr1pHht2JO/j2NI+wn33GWnyfrXFbL9tsDgRKz6u2+5Ibz45JBwS/8rYnw8/tQz0VABntM7pjQOAKt+x149w9JLLhEuufKaaMXjYmV/u55b1bT6Nmp0hS3PTuqxyYZiDC4tN0Z9/U30sHVeacUw11xz1p5tPPKGrfzXdcKW2+0cFu7UKRx9+KExbTYFNEfvXltvGdb4y6q1Z/MNjSPiAG8h40KGPP5ELgd/pmDwoz/l0KqrdK4923hSj3KXtdcLx514avjHgQeELTbduNWM66kxQ43xvWCNoXdvTWPtsaGPR48chjRlZP8bbw5vvf1OzA9NHcsx6MGHw2rdN4xxsNX2O0ePL+NE8g7x8NSIEbERsdSSi9eeLT1lb5h0mHHG2Ge44nLLRrdhl84rx/NYx1jJKauv1jX869C/hzlmn62mhdAhbLNFj+jC++jjT2J/dktDC2jLHptENxr9xs1tEfG344abe845YisAd/dOvbeN7vQ5Z//dXSswyLDAcb0CBgCGyEKdFqwpmJo36AsX8X9O6huNEwqihRZcMKy8wnI1iX58mFST+RsL3Q70z9MVRV/rhZddEeafb96w5847xb/bNJ/YVXL7nWFsTaWCIVjMltm1NQX9Gf/9v8m6UxsKf9eNA24P09QaqOWmN95Cuov/fsTRuRtQmQWD/5obbo5lER66YkEcHNvv5HDvA//z2JYaBk9vtfnvjSpmEHVes3s0pGmwaHDpdNNNG9oWwZCiAcw76SrHc51n8EzePeiB2KW3wJ9az0M3NcreMJm5pqKdd555ao+mzGyzzFJjyPyvFUffKn2MdIN8933LT0OmkKU/loFHO223bbMLXbwK6UhpjIxOCxTuj2SMCS52psdh1RMYP1KMftUunVecrHVMIXBavz4xTGk2xZTg/3XYwX+LA8AYmHXAPntGg6UppKPL6wsYadUClSUG3x133xsHwjWnywXkDcNb9sCdt0ZPB+8u1J06NRiEybP77rlbk/VuTbJpiwGQF/33zJgXmbGkbuO8gdH/r+P7xnS/+847NKssUn7n/48nFu/14n9eLPznnP/LzbgNwCt05qknxnFWNOrovqTBduYpJ4ZllloyNto0VqoxpLPC8No/OPC2sPN2veJQgetvuTV2b+URjJLjTzo1GqZN8US3JGVvmDSHX2usZLo6SKTZfsdKgpYrMz0Y98H0uHLgdzfrl3Gfv3/sz41vfZs/QnrHzXzdTQPCKScc2ywXfhYKtnnnmTsW1PSRv/3uu3VdiQ3l+ZdejqsD73vwP+oMaAKDsdMB5nnteqOSXmO1VeM4qTE//9zkroGWBGPh0KOOjTNnjv7nIU3ucisEBg7e62MO/0csV9/7oHkzs4oJ6ZOB2sxMe27Yo2H4kIdjdzaG+Xejvy/K2DW89vPMPVccsI0XamxN2ZU3rxmNBbqzGF9Ir8Heu++SO89kVRsmH3z4USwEGVE+91xz1Z79I0zbe7OeCh2rm+6khkACLdasnMaAO/HRIUPjtDimx8m6n9rc9DFjxsTCtRRQ8bB+xXH/+mfsgjrjvPOb7Bb1GJPfQc9TzzwnTo2k5UgF2hKtpGnaTRMHGVYrFPyUK3lr8PB3PTX82XDokceEFZZdNuYturRbghmmnz52jeQdymAmTsAyRezOotxkjGO7mrzQJkdpgAYfC8odeXzf6CnZf689WnWAbUOpKsOEsRQTaoRBHAZ9XXj5lfG8Bv8xhUyDAD/9/PNYkDP+pM8pp9dbKZKx6U6iNcfslCkZG+msHGYctNYocFptZJT55pknjkPh/8/MHWYvMeirEHPOMUes0B8b9nijW73NhT5aPDysX8EA5Z237x3PX3XdjU0at1AN4JZlFUdmnRUaL8XKjif++8zw+FNPR6OEluPUIK77nvrvOKCTlYCn1i3D9e9Gj45jTB4ZPDSstMLyf+jKI39ccuXVYY31No5Geja/pG7xNDAYOx1g3pyut6nFVXNgED0Gdf8bbo5dBosWaIXTjcJ0fqb5N3etFzE1rTgePOyJ8K/jTghrrbF6OOaIfzTIU9LYuEJP8u85F15csz8xLLNU8yr7logrYMAuK9Yef/JpMT1uvfmmYaEC03Ibmwf4/7/59tvh3+ecFxcbXHvN1f8w421qeaCpTC2u+B3S5mln/Td6dPbbc7fceUpErgyTdH0QXLZU9qAR781dkp41MkgMDHraff+DYh8gS6PvttMO0WqUq4+WDtNT11h/k7B57x2jyPV5FnBdL7PUEnGfqbsMqmrI3zrttNPE32kN/lRToC/x58XidOJV19kg/v9Z64QxJ/VZ88svu3Q0YhjEyDPyLKTrmDSUdNQ+4YRT/j2ZWz6NKwqCK665Lvz662+x75vCc+FOC4Y9dt4xrjlDpdfYjFxOY0wKxRUoDxAKeXdYLZZVHJmZ9fSIZ2vP/o/Bw4bFliH3ZLtJCPwmv50yatTXNe99MQ5mHHDnXXGbkuZXwkprdAvrbLJFXOKaPuvNN9249s7/QSvyyWdGREMZI70UUzSnFleNIbs+z9ob9YhGNQ2cfx1ycN1g8xTGndDQYcvy4Fmy8Zrtxiq0BtDUtGKFVgZkcp4xPKuvu1Hd+xWakq54Jn0H5R+zUoaPeK7GyNw3LL7YorV3No2pxVVjSD2nzKDZfve94yydHXtvG3bZYbuClXRj8wD//9677hWXYmDNGJY/yNKQPJCmK9WFpAOdO7fA8vRTi6sPaxrZNO7I58ykVF2lUChdlYqq8pjQepMxQEX9j4MOCBefe1bsyhF/6dol9D3mX9Hg4F5aPeedcVrYdqvNa++YHCrOo/95aNiu59Z1CxfVxwLJrJxtt9oy/kZrwCI6TBVmVhL/JwyOTTZYP1x98flxIZ9CYIilA8VaAwwODA8MEKx59fliMDIdmq4oxkZUQ7dLY+m55RZxzACMn9C8aeiCWVYM0ga0mTRxyq1F0hXrl7ASbJ+jjijYIqei3nvXnWOaGl/zTjyYrU1LxJWgXDn8kINC/0suLOgtgXXWWjOsu/Zacb+5M+JEY7VqKI2Nq/n/NF/YZfve4fYb+sfZes3tKmyJuAL+TlYovqX/leGIGr3q8x41JQ+wwGBcIHH3XQsaOy2VB1oqrkpBm0lT801lGFfTki03sC6xNlk2+ISj/9XkmSLGFILWza133h3OP/PfU/1kAmnxiy+/LGo6pGuOrkda6i+/8lq48L9nhpWWX672atOhZfXgo4PjyH1m3hz7r8Oa3R/NDIURNa3wY/udEv682CJxRkQhr0JTQYuLr7gmfo+p0HLgjYmrxujaUChuR3//fVydmr7+f594QjS4m0tLaNVS6UrQOv/bP44I+++1W/ybszQmrvSuk/scU1TvZ7nkgZZKVwLPEB8U5bMWU/vUwtR0bQhV5TExptLAe0TXXI9td4juY8bjLL/M0rVXmwaFMV07uLspkJn6uusOvZtdIGOUsQAXC5CxqBcr3BbTKJkaLRFXjYECe5NttovdXVQeeBTWXnON2qtNo6W0qsS4agzllAdKHVctgQ0TY4oAUzD1XaGp9dWmq0RObSxSQ2BwHd10F//3rLhkf7EGtOHuZj2Rqy46v9lrnQi6O3Gh8x2YhgzAbQgU9uon15ic+mhsXDVG14bAwnFMpz39xD6hz9GFu7uaQkto1RLpKh2Tko4jLERT4iodi4XHq7mUSx5oiXRFWteYnKmtedUYXRuCu3KMaSYUgGmFyOyR+roSlBYFY3mK2VVQjWTjdErx3xgao6tpGFRgGA8pfKKiqS5/QSVK90FaIRbjvdVMoThldlyhrpxi61oVhokxxhhjygN35RhjjDEmN9gwMcYYY0xusGFijDHGmNxgw8QYY4wxucGGiTHGGGNygw0TY4wxxuQGGybGGGOMyQ02TIwxxhiTG2yYGGOMMSY32DAxxhhjTG6wYWKMMcaY3GDDxBhjjDG5wYaJMcYYY3JD7gwTPnb8+ptvhX8ec3xYtdv6YcXV1w477LFPuO+hh8OvvzX9y8YTJkwITz4zPBx34qnhkiuvrj3bepT694HPWO9/6D/DCy+9XHvGGGOMyRe5MkwwSgbee1/Yee/9w8OPDQm//PprPD/yjTfDUX1ODKeecXb4eezYeK6x/FZj1Nw96P5w9333h3Hjfqk923qU+vfh2+++C089MyJMmDix9owxxhiTL3JlmLzy2shw1nkXxP2jDjskDB/8UHj+8cdCn6OOCNNMM01Npf5AePypp+N1Y4wxxlQeuTFM6Op48NHB4Ycffwzd1lwjbNlj0zD99NOHdu3ahc033Tj02HijMH78+PDYkGFh3Lhx4dkXXozdPBtv3Tt2UQidx+syevT34c577o3Hq3XfMAx68OF4z5XXXh/PKXAP8N6jTzgxnnvm2eeid2OL7XaKx3Qn0RWDVwf4TX6ba/ym0Hn9XY35/RQ8Qyf9+8ywwRY9w0M18dJUiAPigt/Z629/j+fYpr/P/5n/O+h+/qYxY8aEiy6/Kqy14WaxW+3MGqORc+LcCy/5Q/yD/s9pvMAnn34WjuzTL76LQHcd3XaKU2OMMSY3hgkV8Tvvvhv3l1lqyTBj+/ZxH6abdtqwwnLLxP0PP/6kyd05jeH0s/4bx4N8+NHH8ZjupCOP7xeee/GleNzSvPnW2zUV/KDw1ahR4baBd4Uff/qp9krr8NY774a/H3F0uPiKq6KxSLfatTfeHG4YcFuTDIl333s//O2wI8L9Dz0S30Wgu27fg/8Rhj/3fO1dxhhjqp3cGCZja4yNb7/7Pu7POcfscZsy95xzxu23340Oo7//Ie43hK16bBZeempoeOaxB8OmG64fz+25y07xnAL3ZMELsNtO24enH30wPHDnraHLyivFCvruQQ80ahBuU38/Zey4X8LEJo4LmXXWWcJ1l18cf+eKC8+L59imv39avz5hhhlmiNfE9TffGsb98ku49rKLwgtPDI5xsNIKy4fHn3omxkNjwBtz+TXXxv2rLjo/ds/xTt7dacEFws233dEqxqYxxpj8kxvD5KcxP0+xwms/4/88KK3BVj02DQfus1do336GMO88c4fNN90onn/73XfDT63gvVhyicXj3zD3XHOFnbfrFWaZeebaK60Dhti5/z41rLDcsqFt27YxDjqvuELscps0sXEek8+++DK88PKr4W977xk6r7RC7J7jnbx7my16hLfefjeMGvV17d3GGGOqmdwYJtNPN11oP8P0tUd/ZOzPrduinn222eIYF7HA/PPHbWM9Nk2Frqzjjzw8PHTXbWGDddepPdt6YDTMOecctUe/c8jf9oveF7wwjYHZQJ9/8UUcX5KObSGcePoZ8XpjvTDGGGMqk9wYJh07dggz13oFvv7m27hN+err31vUdPPMPuuscb81kWE0TU1rv11Na98YY4wxxSc3NSwegsUWWTjuM9A0HXPAmI6XXx0Z95dbZukw00wd434WxmG8+PIrtUeTQ/dB+2RAbWNgsOcbb78d9xeYf74w++yzxf0s3PfW2++EUbVGVEpjf79Ys3IK8d13o2v3ig9/92uvv1l79DsdO3SIHqjzz/z3ZGNbFJ585P6w/LK/D242xhhT3eTGMJl22mnDeuusHdcrGfL4k2HgPYPCL7/8Eo2S2wfeE+65/4Ew80wzhfW7d4uV/GyzzBLHPfzwww/hs88/j7M8brl9YJzeWgjer3Eaz7/0cvj0s8/jfn2wIBqGDmMqHhk8NPS/4eZ4ftVVVokV7ayzzFxT2f7uufngw4/ifY8NHRZOOePsOK05S2N/P52Vc93NA8L3Nf/P5iIDgVV0CxlPjWWhTgvELpqnh4+IOn3z7Xfh7P+7sEaHO2vv+J355p0n/HmxRcLFV14dp2ETt8YYY0wh2tS08hs1knHcry1XqVC5X3LlNQWXbMdg+fv++4adt+8VDRNa5sedeEo0GlKWWmLxWEFitNBCT8dDPPH0M3EKbNZw6HfskXFmDLNH+p32n7r1RrKs223tcMJRR8R38reec8HFcQptyiILdYrXfhs/IVx4zhlh0YUXqr0y9d9PYdn4vQ86NN67+qpdwhmnnBhm6ljYU9RQMG4Y58HqrynMFjrh6H/FmTmsY3LQ4UeGrp1XjmNKpgRTiv/2jyMmM3LQacXllo3Tqpn9wyBawCA5/Jg+BceSpL9vjDGmusnVYAkMjr133yWcfmKfWLlRyTEodvXVukYjY5cdesd7gK6fIw45KHpQuI+xJwfsvUc489QTo1FSiNVX7Rr+feIJde+eElSS3KOK9sTjjg6n9zu+ztCJf+tuu4Sdtts2/o14c3ptvWU4r+bvpLupEI35/XRWTs8tt2i2UQJ4bDCsem65efx7m8viiy1aEy9HxS2w/sy5/zk1HF6jC56ZlFVX6Rwu/b9zwobrdS/KbxtjjKlMcuUxKTWpx4S1RqbmMTDGGGNMcfH0EmOMMcbkBhsmxhhjjMkNNkyMMcYYkxs8xsQYY4wxucEeE2OMMcbkBhsmxhhjjMkNNkyMMcYYkxtsmBhjjDEmN9gwMcYYY0xOCOH/ARERRAJRX1BeAAAAAElFTkSuQmCC;" vertex="1" parent="1">
          <mxGeometry x="130" y="32" width="490" height="448.13" as="geometry" />
        </mxCell>
        <mxCell id="AJEfotuRQWFF65abkvET-4" value="" style="endArrow=classic;html=1;rounded=0;fillColor=#d5e8d4;strokeColor=#82b366;strokeWidth=3;exitX=0.51;exitY=0.888;exitDx=0;exitDy=0;exitPerimeter=0;" edge="1" parent="1" source="AJEfotuRQWFF65abkvET-1">
          <mxGeometry width="50" height="50" relative="1" as="geometry">
            <mxPoint x="330" y="381" as="sourcePoint" />
            <mxPoint x="120" y="181" as="targetPoint" />
          </mxGeometry>
        </mxCell>
        <mxCell id="AJEfotuRQWFF65abkvET-6" value="" style="endArrow=classic;html=1;rounded=0;fillColor=#d5e8d4;strokeColor=#82b366;strokeWidth=3;exitX=0.714;exitY=0.866;exitDx=0;exitDy=0;exitPerimeter=0;" edge="1" parent="1" source="AJEfotuRQWFF65abkvET-1">
          <mxGeometry width="50" height="50" relative="1" as="geometry">
            <mxPoint x="376.9000000000001" y="314.93944" as="sourcePoint" />
            <mxPoint x="117" y="66" as="targetPoint" />
          </mxGeometry>
        </mxCell>
        <mxCell id="AJEfotuRQWFF65abkvET-7" value="" style="endArrow=classic;html=1;rounded=0;fillColor=#d5e8d4;strokeColor=#82b366;strokeWidth=3;exitX=0.918;exitY=0.866;exitDx=0;exitDy=0;exitPerimeter=0;" edge="1" parent="1" source="AJEfotuRQWFF65abkvET-1">
          <mxGeometry width="50" height="50" relative="1" as="geometry">
            <mxPoint x="483.9000000000001" y="319.93944" as="sourcePoint" />
            <mxPoint x="224" y="71" as="targetPoint" />
          </mxGeometry>
        </mxCell>
        <mxCell id="AJEfotuRQWFF65abkvET-8" value="" style="endArrow=classic;html=1;rounded=0;fillColor=#d5e8d4;strokeColor=#82b366;strokeWidth=3;" edge="1" parent="1">
          <mxGeometry width="50" height="50" relative="1" as="geometry">
            <mxPoint x="590" y="320" as="sourcePoint" />
            <mxPoint x="328" y="68" as="targetPoint" />
          </mxGeometry>
        </mxCell>
        <mxCell id="AJEfotuRQWFF65abkvET-9" value="" style="endArrow=classic;html=1;rounded=0;fillColor=#d5e8d4;strokeColor=#82b366;strokeWidth=3;" edge="1" parent="1">
          <mxGeometry width="50" height="50" relative="1" as="geometry">
            <mxPoint x="730" y="160" as="sourcePoint" />
            <mxPoint x="670" y="100" as="targetPoint" />
          </mxGeometry>
        </mxCell>
        <mxCell id="AJEfotuRQWFF65abkvET-10" value="&lt;font style=&quot;font-size: 16px;&quot;&gt;&lt;b&gt;&lt;font color=&quot;#00b800&quot;&gt;Green arrow&lt;/font&gt; denots checking direction&lt;br&gt;&lt;br&gt;Compare matrix[ y ][ x ] and matrix[ y-1 ][ x-1 ]&lt;/b&gt;&lt;br&gt;&lt;/font&gt;" style="text;html=1;strokeColor=none;fillColor=none;align=left;verticalAlign=middle;whiteSpace=wrap;rounded=0;" vertex="1" parent="1">
          <mxGeometry x="670" y="190" width="370" height="30" as="geometry" />
        </mxCell>
      </root>
    </mxGraphModel>
  </diagram>
</mxfile>
